# MagicaVoxel @ Ephtracy

# group
o Waist

# material
mtllib kiritan-9-Waist.mtl
usemtl palette

# normals
vn -1 0 0
vn 1 0 0
vn 0 0 1
vn 0 0 -1
vn 0 -1 0
vn 0 1 0

# texcoords
vt 0.912109 0.5
vt 0.916016 0.5
vt 0.919922 0.5
vt 0.939453 0.5

# verts
v -0.8 2.1 1.2
v -0.8 2.1 -1.2
v -0.8 2.3 1.2
v -0.8 2.3 1
v -0.8 2.3 -1
v -0.8 2.3 -1.2
v -0.8 2.6 1
v -0.8 2.6 0.8
v -0.8 2.6 -0.8
v -0.8 2.6 -1
v -0.8 2.7 0.8
v -0.8 2.7 0.6
v -0.8 2.7 -0.6
v -0.8 2.7 -0.8
v -0.8 2.9 0.6
v -0.8 2.9 -0.6
v -0.7 2.6 1
v -0.7 2.6 0.8
v -0.7 2.6 -0.8
v -0.7 2.6 -1
v -0.7 2.7 1
v -0.7 2.7 0.8
v -0.7 2.7 0.6
v -0.7 2.7 -0.6
v -0.7 2.7 -0.8
v -0.7 2.7 -1
v -0.7 2.9 0.8
v -0.7 2.9 0.6
v -0.7 2.9 -0.6
v -0.7 2.9 -0.8
v -0.6 2.3 1.2
v -0.6 2.3 1
v -0.6 2.3 -1
v -0.6 2.3 -1.2
v -0.6 2.4 1.2
v -0.6 2.4 1.1
v -0.6 2.4 -1.1
v -0.6 2.4 -1.2
v -0.6 2.6 1.1
v -0.6 2.6 1
v -0.6 2.6 -1
v -0.6 2.6 -1.1
v -0.6 2.7 1
v -0.6 2.7 0.8
v -0.6 2.7 -0.8
v -0.6 2.7 -1
v -0.6 2.9 1
v -0.6 2.9 0.8
v -0.6 2.9 -0.8
v -0.6 2.9 -1
v -0.5 2.4 1.2
v -0.5 2.4 1.1
v -0.5 2.4 -1.1
v -0.5 2.4 -1.2
v -0.5 2.6 1.2
v -0.5 2.6 1.1
v -0.5 2.6 -1.1
v -0.5 2.6 -1.2
v -0.5 2.9 0.8
v -0.5 2.9 -0.8
v -0.5 3 0.8
v -0.5 3 -0.8
v -0.4 2.3 0.7
v -0.4 2.3 0.5
v -0.4 2.3 0.3
v -0.4 2.3 -0.3
v -0.4 2.3 -0.5
v -0.4 2.3 -0.7
v -0.4 2.4 0.8
v -0.4 2.4 0.7
v -0.4 2.4 0.5
v -0.4 2.4 0.4
v -0.4 2.4 0.3
v -0.4 2.4 -0.3
v -0.4 2.4 -0.4
v -0.4 2.4 -0.5
v -0.4 2.4 -0.7
v -0.4 2.4 -0.8
v -0.4 2.5 0.8
v -0.4 2.5 0.4
v -0.4 2.5 -0.4
v -0.4 2.5 -0.8
v -0.4 2.6 1.1
v -0.4 2.6 1
v -0.4 2.6 -1
v -0.4 2.6 -1.1
v -0.4 2.7 1.1
v -0.4 2.7 1
v -0.4 2.7 -1
v -0.4 2.7 -1.1
v -0.3 2.3 0.8
v -0.3 2.3 0.7
v -0.3 2.3 0.5
v -0.3 2.3 0.4
v -0.3 2.3 0.3
v -0.3 2.3 -0.3
v -0.3 2.3 -0.4
v -0.3 2.3 -0.5
v -0.3 2.3 -0.7
v -0.3 2.3 -0.8
v -0.3 2.4 0.8
v -0.3 2.4 0.7
v -0.3 2.4 0.5
v -0.3 2.4 0.4
v -0.3 2.4 0.3
v -0.3 2.4 -0.3
v -0.3 2.4 -0.4
v -0.3 2.4 -0.5
v -0.3 2.4 -0.7
v -0.3 2.4 -0.8
v 0.6 2.1 1
v 0.6 2.1 -1
v 0.6 2.2 0.8
v 0.6 2.2 -0.8
v 0.6 2.3 1
v 0.6 2.3 0.9
v 0.6 2.3 -0.9
v 0.6 2.3 -1
v 0.6 2.5 1
v 0.6 2.5 0.9
v 0.6 2.5 0.8
v 0.6 2.5 -0.8
v 0.6 2.5 -0.9
v 0.6 2.5 -1
v 0.7 2.2 0.8
v 0.7 2.2 -0.8
v 0.7 2.5 0.8
v 0.7 2.5 -0.8
v -0.6 2.1 1
v -0.6 2.1 -1
v -0.6 2.3 1
v -0.6 2.3 0.9
v -0.6 2.3 -0.9
v -0.6 2.3 -1
v -0.6 2.5 1
v -0.6 2.5 0.9
v -0.6 2.5 -0.9
v -0.6 2.5 -1
v 0.3 2.3 0.8
v 0.3 2.3 0.7
v 0.3 2.3 0.5
v 0.3 2.3 0.4
v 0.3 2.3 0.3
v 0.3 2.3 -0.3
v 0.3 2.3 -0.4
v 0.3 2.3 -0.5
v 0.3 2.3 -0.7
v 0.3 2.3 -0.8
v 0.3 2.4 0.8
v 0.3 2.4 0.7
v 0.3 2.4 0.5
v 0.3 2.4 0.4
v 0.3 2.4 0.3
v 0.3 2.4 -0.3
v 0.3 2.4 -0.4
v 0.3 2.4 -0.5
v 0.3 2.4 -0.7
v 0.3 2.4 -0.8
v 0.4 2.3 0.7
v 0.4 2.3 0.5
v 0.4 2.3 0.3
v 0.4 2.3 -0.3
v 0.4 2.3 -0.5
v 0.4 2.3 -0.7
v 0.4 2.4 0.8
v 0.4 2.4 0.7
v 0.4 2.4 0.5
v 0.4 2.4 0.4
v 0.4 2.4 0.3
v 0.4 2.4 -0.3
v 0.4 2.4 -0.4
v 0.4 2.4 -0.5
v 0.4 2.4 -0.7
v 0.4 2.4 -0.8
v 0.4 2.5 0.8
v 0.4 2.5 0.4
v 0.4 2.5 -0.4
v 0.4 2.5 -0.8
v 0.4 2.6 1.1
v 0.4 2.6 1
v 0.4 2.6 -1
v 0.4 2.6 -1.1
v 0.4 2.7 1.1
v 0.4 2.7 1
v 0.4 2.7 -1
v 0.4 2.7 -1.1
v 0.5 2.4 1.2
v 0.5 2.4 1.1
v 0.5 2.4 -1.1
v 0.5 2.4 -1.2
v 0.5 2.6 1.2
v 0.5 2.6 1.1
v 0.5 2.6 -1.1
v 0.5 2.6 -1.2
v 0.5 2.9 0.8
v 0.5 2.9 -0.8
v 0.5 3 0.8
v 0.5 3 -0.8
v 0.6 2.3 1.2
v 0.6 2.3 1
v 0.6 2.3 -1
v 0.6 2.3 -1.2
v 0.6 2.4 1.2
v 0.6 2.4 1.1
v 0.6 2.4 -1.1
v 0.6 2.4 -1.2
v 0.6 2.6 1.1
v 0.6 2.6 1
v 0.6 2.6 -1
v 0.6 2.6 -1.1
v 0.6 2.7 1
v 0.6 2.7 0.7
v 0.6 2.7 -0.7
v 0.6 2.7 -1
v 0.6 2.9 1
v 0.6 2.9 0.7
v 0.6 2.9 -0.7
v 0.6 2.9 -1
v 0.7 2.6 1
v 0.7 2.6 0.9
v 0.7 2.6 -0.9
v 0.7 2.6 -1
v 0.7 2.7 1
v 0.7 2.7 0.9
v 0.7 2.7 -0.9
v 0.7 2.7 -1
v 0.8 2.1 1.2
v 0.8 2.1 -1.2
v 0.8 2.3 1.2
v 0.8 2.3 1
v 0.8 2.3 -1
v 0.8 2.3 -1.2
v 0.8 2.6 1
v 0.8 2.6 0.9
v 0.8 2.6 -0.9
v 0.8 2.6 -1
v 0.8 2.7 0.9
v 0.8 2.7 0.7
v 0.8 2.7 -0.7
v 0.8 2.7 -0.9
v 0.8 2.9 0.7
v 0.8 2.9 -0.7
v -0.8 2.1 1.2
v -0.8 2.3 1.2
v -0.6 2.3 1.2
v -0.6 2.4 1.2
v -0.5 2.4 1.2
v -0.5 2.6 1.2
v 0.5 2.4 1.2
v 0.5 2.6 1.2
v 0.6 2.3 1.2
v 0.6 2.4 1.2
v 0.8 2.1 1.2
v 0.8 2.3 1.2
v -0.6 2.4 1.1
v -0.6 2.6 1.1
v -0.5 2.4 1.1
v -0.5 2.6 1.1
v -0.4 2.6 1.1
v -0.4 2.7 1.1
v 0.4 2.6 1.1
v 0.4 2.7 1.1
v 0.5 2.4 1.1
v 0.5 2.6 1.1
v 0.6 2.4 1.1
v 0.6 2.6 1.1
v -0.8 2.3 1
v -0.8 2.6 1
v -0.7 2.6 1
v -0.7 2.7 1
v -0.6 2.3 1
v -0.6 2.6 1
v -0.6 2.7 1
v -0.6 2.9 1
v -0.4 2.6 1
v -0.4 2.7 1
v 0.4 2.6 1
v 0.4 2.7 1
v 0.6 2.3 1
v 0.6 2.6 1
v 0.6 2.7 1
v 0.6 2.9 1
v 0.7 2.6 1
v 0.7 2.7 1
v 0.8 2.3 1
v 0.8 2.6 1
v 0.7 2.6 0.9
v 0.7 2.7 0.9
v 0.8 2.6 0.9
v 0.8 2.7 0.9
v -0.8 2.6 0.8
v -0.8 2.7 0.8
v -0.7 2.6 0.8
v -0.7 2.7 0.8
v -0.7 2.9 0.8
v -0.6 2.7 0.8
v -0.6 2.9 0.8
v -0.5 2.9 0.8
v -0.5 3 0.8
v -0.4 2.4 0.8
v -0.4 2.5 0.8
v -0.3 2.3 0.8
v -0.3 2.4 0.8
v -0.3 2.5 0.8
v 0.3 2.3 0.8
v 0.3 2.4 0.8
v 0.3 2.5 0.8
v 0.4 2.4 0.8
v 0.4 2.5 0.8
v 0.5 2.9 0.8
v 0.5 3 0.8
v -0.4 2.3 0.7
v -0.4 2.4 0.7
v -0.3 2.3 0.7
v -0.3 2.4 0.7
v 0.3 2.3 0.7
v 0.3 2.4 0.7
v 0.4 2.3 0.7
v 0.4 2.4 0.7
v 0.6 2.7 0.7
v 0.6 2.9 0.7
v 0.8 2.7 0.7
v 0.8 2.9 0.7
v -0.8 2.7 0.6
v -0.8 2.9 0.6
v -0.7 2.7 0.6
v -0.7 2.9 0.6
v -0.4 2.3 0.3
v -0.4 2.4 0.3
v -0.3 2.3 0.3
v -0.3 2.4 0.3
v 0.3 2.3 0.3
v 0.3 2.4 0.3
v 0.4 2.3 0.3
v 0.4 2.4 0.3
v -0.4 2.3 -0.5
v -0.4 2.4 -0.5
v -0.3 2.3 -0.5
v -0.3 2.4 -0.5
v 0.3 2.3 -0.5
v 0.3 2.4 -0.5
v 0.4 2.3 -0.5
v 0.4 2.4 -0.5
v 0.6 2.2 -0.8
v 0.6 2.5 -0.8
v 0.7 2.2 -0.8
v 0.7 2.5 -0.8
v -0.6 2.1 -1
v -0.6 2.3 -1
v -0.6 2.5 -1
v -0.5 2.3 -1
v -0.5 2.5 -1
v 0.5 2.3 -1
v 0.5 2.5 -1
v 0.6 2.1 -1
v 0.6 2.3 -1
v 0.6 2.5 -1
v -0.6 2.1 1
v -0.6 2.3 1
v -0.6 2.5 1
v -0.5 2.3 1
v -0.5 2.5 1
v 0.5 2.3 1
v 0.5 2.5 1
v 0.6 2.1 1
v 0.6 2.3 1
v 0.6 2.5 1
v 0.6 2.2 0.8
v 0.6 2.5 0.8
v 0.7 2.2 0.8
v 0.7 2.5 0.8
v -0.4 2.3 0.5
v -0.4 2.4 0.5
v -0.3 2.3 0.5
v -0.3 2.4 0.5
v 0.3 2.3 0.5
v 0.3 2.4 0.5
v 0.4 2.3 0.5
v 0.4 2.4 0.5
v -0.4 2.3 -0.3
v -0.4 2.4 -0.3
v -0.3 2.3 -0.3
v -0.3 2.4 -0.3
v 0.3 2.3 -0.3
v 0.3 2.4 -0.3
v 0.4 2.3 -0.3
v 0.4 2.4 -0.3
v -0.8 2.7 -0.6
v -0.8 2.9 -0.6
v -0.7 2.7 -0.6
v -0.7 2.9 -0.6
v -0.4 2.3 -0.7
v -0.4 2.4 -0.7
v -0.3 2.3 -0.7
v -0.3 2.4 -0.7
v 0.3 2.3 -0.7
v 0.3 2.4 -0.7
v 0.4 2.3 -0.7
v 0.4 2.4 -0.7
v 0.6 2.7 -0.7
v 0.6 2.9 -0.7
v 0.8 2.7 -0.7
v 0.8 2.9 -0.7
v -0.8 2.6 -0.8
v -0.8 2.7 -0.8
v -0.7 2.6 -0.8
v -0.7 2.7 -0.8
v -0.7 2.9 -0.8
v -0.6 2.7 -0.8
v -0.6 2.9 -0.8
v -0.5 2.9 -0.8
v -0.5 3 -0.8
v -0.4 2.4 -0.8
v -0.4 2.5 -0.8
v -0.3 2.3 -0.8
v -0.3 2.4 -0.8
v -0.3 2.5 -0.8
v 0.3 2.3 -0.8
v 0.3 2.4 -0.8
v 0.3 2.5 -0.8
v 0.4 2.4 -0.8
v 0.4 2.5 -0.8
v 0.5 2.9 -0.8
v 0.5 3 -0.8
v 0.7 2.6 -0.9
v 0.7 2.7 -0.9
v 0.8 2.6 -0.9
v 0.8 2.7 -0.9
v -0.8 2.3 -1
v -0.8 2.6 -1
v -0.7 2.6 -1
v -0.7 2.7 -1
v -0.6 2.3 -1
v -0.6 2.6 -1
v -0.6 2.7 -1
v -0.6 2.9 -1
v -0.4 2.6 -1
v -0.4 2.7 -1
v 0.4 2.6 -1
v 0.4 2.7 -1
v 0.6 2.3 -1
v 0.6 2.6 -1
v 0.6 2.7 -1
v 0.6 2.9 -1
v 0.7 2.6 -1
v 0.7 2.7 -1
v 0.8 2.3 -1
v 0.8 2.6 -1
v -0.6 2.4 -1.1
v -0.6 2.6 -1.1
v -0.5 2.4 -1.1
v -0.5 2.6 -1.1
v -0.4 2.6 -1.1
v -0.4 2.7 -1.1
v 0.4 2.6 -1.1
v 0.4 2.7 -1.1
v 0.5 2.4 -1.1
v 0.5 2.6 -1.1
v 0.6 2.4 -1.1
v 0.6 2.6 -1.1
v -0.8 2.1 -1.2
v -0.8 2.3 -1.2
v -0.6 2.3 -1.2
v -0.6 2.4 -1.2
v -0.5 2.4 -1.2
v -0.5 2.6 -1.2
v 0.5 2.4 -1.2
v 0.5 2.6 -1.2
v 0.6 2.3 -1.2
v 0.6 2.4 -1.2
v 0.8 2.1 -1.2
v 0.8 2.3 -1.2
v -0.8 2.1 1.2
v 0.8 2.1 1.2
v -0.6 2.1 1.1
v 0.6 2.1 1.1
v -0.7 2.1 1
v -0.6 2.1 1
v 0.6 2.1 1
v 0.7 2.1 1
v -0.7 2.1 -1
v -0.6 2.1 -1
v 0.6 2.1 -1
v 0.7 2.1 -1
v -0.6 2.1 -1.1
v 0.6 2.1 -1.1
v -0.8 2.1 -1.2
v 0.8 2.1 -1.2
v -0.3 2.3 0.8
v 0.3 2.3 0.8
v -0.4 2.3 0.7
v -0.3 2.3 0.7
v -0.2 2.3 0.7
v 0.2 2.3 0.7
v 0.3 2.3 0.7
v 0.4 2.3 0.7
v -0.4 2.3 0.5
v -0.3 2.3 0.5
v 0.3 2.3 0.5
v 0.4 2.3 0.5
v -0.3 2.3 0.4
v -0.2 2.3 0.4
v 0.2 2.3 0.4
v 0.3 2.3 0.4
v -0.4 2.3 0.3
v -0.3 2.3 0.3
v 0.3 2.3 0.3
v 0.4 2.3 0.3
v -0.4 2.3 -0.3
v -0.3 2.3 -0.3
v 0.3 2.3 -0.3
v 0.4 2.3 -0.3
v -0.3 2.3 -0.4
v -0.2 2.3 -0.4
v 0.2 2.3 -0.4
v 0.3 2.3 -0.4
v -0.4 2.3 -0.5
v -0.3 2.3 -0.5
v 0.3 2.3 -0.5
v 0.4 2.3 -0.5
v -0.4 2.3 -0.7
v -0.3 2.3 -0.7
v -0.2 2.3 -0.7
v 0.2 2.3 -0.7
v 0.3 2.3 -0.7
v 0.4 2.3 -0.7
v -0.3 2.3 -0.8
v 0.3 2.3 -0.8
v -0.4 2.4 0.8
v -0.3 2.4 0.8
v 0.3 2.4 0.8
v 0.4 2.4 0.8
v -0.4 2.4 0.7
v -0.3 2.4 0.7
v 0.3 2.4 0.7
v 0.4 2.4 0.7
v -0.4 2.4 0.5
v -0.3 2.4 0.5
v 0.3 2.4 0.5
v 0.4 2.4 0.5
v -0.4 2.4 0.4
v -0.3 2.4 0.4
v 0.3 2.4 0.4
v 0.4 2.4 0.4
v -0.4 2.4 0.3
v -0.3 2.4 0.3
v 0.3 2.4 0.3
v 0.4 2.4 0.3
v -0.4 2.4 -0.3
v -0.3 2.4 -0.3
v 0.3 2.4 -0.3
v 0.4 2.4 -0.3
v -0.4 2.4 -0.4
v -0.3 2.4 -0.4
v 0.3 2.4 -0.4
v 0.4 2.4 -0.4
v -0.4 2.4 -0.5
v -0.3 2.4 -0.5
v 0.3 2.4 -0.5
v 0.4 2.4 -0.5
v -0.4 2.4 -0.7
v -0.3 2.4 -0.7
v 0.3 2.4 -0.7
v 0.4 2.4 -0.7
v -0.4 2.4 -0.8
v -0.3 2.4 -0.8
v 0.3 2.4 -0.8
v 0.4 2.4 -0.8
v -0.6 2.5 1
v -0.5 2.5 1
v 0.5 2.5 1
v 0.6 2.5 1
v -0.6 2.5 0.9
v 0.6 2.5 0.9
v -0.4 2.5 0.8
v -0.3 2.5 0.8
v 0.3 2.5 0.8
v 0.4 2.5 0.8
v 0.6 2.5 0.8
v 0.7 2.5 0.8
v -0.4 2.5 0.4
v 0.4 2.5 0.4
v -0.4 2.5 -0.4
v 0.4 2.5 -0.4
v -0.4 2.5 -0.8
v -0.3 2.5 -0.8
v 0.3 2.5 -0.8
v 0.4 2.5 -0.8
v 0.6 2.5 -0.8
v 0.7 2.5 -0.8
v -0.6 2.5 -0.9
v 0.6 2.5 -0.9
v -0.6 2.5 -1
v -0.5 2.5 -1
v 0.5 2.5 -1
v 0.6 2.5 -1
v 0.6 2.2 0.8
v 0.7 2.2 0.8
v 0.6 2.2 -0.8
v 0.7 2.2 -0.8
v -0.8 2.3 1.2
v -0.6 2.3 1.2
v 0.6 2.3 1.2
v 0.8 2.3 1.2
v -0.8 2.3 1
v -0.6 2.3 1
v 0.6 2.3 1
v 0.8 2.3 1
v -0.8 2.3 -1
v -0.6 2.3 -1
v 0.6 2.3 -1
v 0.8 2.3 -1
v -0.8 2.3 -1.2
v -0.6 2.3 -1.2
v 0.6 2.3 -1.2
v 0.8 2.3 -1.2
v -0.6 2.4 1.2
v -0.5 2.4 1.2
v 0.5 2.4 1.2
v 0.6 2.4 1.2
v -0.6 2.4 1.1
v -0.5 2.4 1.1
v 0.5 2.4 1.1
v 0.6 2.4 1.1
v -0.6 2.4 -1.1
v -0.5 2.4 -1.1
v 0.5 2.4 -1.1
v 0.6 2.4 -1.1
v -0.6 2.4 -1.2
v -0.5 2.4 -1.2
v 0.5 2.4 -1.2
v 0.6 2.4 -1.2
v -0.5 2.6 1.2
v 0.5 2.6 1.2
v -0.6 2.6 1.1
v -0.5 2.6 1.1
v -0.4 2.6 1.1
v 0.4 2.6 1.1
v 0.5 2.6 1.1
v 0.6 2.6 1.1
v -0.8 2.6 1
v -0.7 2.6 1
v -0.6 2.6 1
v -0.4 2.6 1
v 0.4 2.6 1
v 0.6 2.6 1
v 0.7 2.6 1
v 0.8 2.6 1
v 0.7 2.6 0.9
v 0.8 2.6 0.9
v -0.8 2.6 0.8
v -0.7 2.6 0.8
v -0.8 2.6 -0.8
v -0.7 2.6 -0.8
v 0.7 2.6 -0.9
v 0.8 2.6 -0.9
v -0.8 2.6 -1
v -0.7 2.6 -1
v -0.6 2.6 -1
v -0.4 2.6 -1
v 0.4 2.6 -1
v 0.6 2.6 -1
v 0.7 2.6 -1
v 0.8 2.6 -1
v -0.6 2.6 -1.1
v -0.5 2.6 -1.1
v -0.4 2.6 -1.1
v 0.4 2.6 -1.1
v 0.5 2.6 -1.1
v 0.6 2.6 -1.1
v -0.5 2.6 -1.2
v 0.5 2.6 -1.2
v -0.4 2.7 1.1
v 0.4 2.7 1.1
v -0.7 2.7 1
v -0.6 2.7 1
v -0.4 2.7 1
v 0.4 2.7 1
v 0.6 2.7 1
v 0.7 2.7 1
v 0.7 2.7 0.9
v 0.8 2.7 0.9
v -0.8 2.7 0.8
v -0.7 2.7 0.8
v -0.6 2.7 0.8
v 0.6 2.7 0.7
v 0.8 2.7 0.7
v -0.8 2.7 0.6
v -0.7 2.7 0.6
v -0.8 2.7 -0.6
v -0.7 2.7 -0.6
v 0.6 2.7 -0.7
v 0.8 2.7 -0.7
v -0.8 2.7 -0.8
v -0.7 2.7 -0.8
v -0.6 2.7 -0.8
v 0.7 2.7 -0.9
v 0.8 2.7 -0.9
v -0.7 2.7 -1
v -0.6 2.7 -1
v -0.4 2.7 -1
v 0.4 2.7 -1
v 0.6 2.7 -1
v 0.7 2.7 -1
v -0.4 2.7 -1.1
v 0.4 2.7 -1.1
v -0.6 2.9 1
v 0.6 2.9 1
v -0.7 2.9 0.8
v -0.6 2.9 0.8
v -0.5 2.9 0.8
v 0.5 2.9 0.8
v 0.6 2.9 0.7
v 0.8 2.9 0.7
v -0.8 2.9 0.6
v -0.7 2.9 0.6
v -0.8 2.9 -0.6
v -0.7 2.9 -0.6
v 0.6 2.9 -0.7
v 0.8 2.9 -0.7
v -0.7 2.9 -0.8
v -0.6 2.9 -0.8
v -0.5 2.9 -0.8
v 0.5 2.9 -0.8
v -0.6 2.9 -1
v 0.6 2.9 -1
v -0.5 3 0.8
v 0.5 3 0.8
v -0.5 3 -0.8
v 0.5 3 -0.8

# faces
f 3/1/1 2/1/1 1/1/1
f 4/1/1 2/1/1 3/1/1
f 5/1/1 2/1/1 4/1/1
f 6/1/1 2/1/1 5/1/1
f 7/1/1 5/1/1 4/1/1
f 8/1/1 5/1/1 7/1/1
f 9/1/1 5/1/1 8/1/1
f 10/1/1 5/1/1 9/1/1
f 11/1/1 9/1/1 8/1/1
f 12/1/1 9/1/1 11/1/1
f 13/1/1 9/1/1 12/1/1
f 14/1/1 9/1/1 13/1/1
f 15/1/1 13/1/1 12/1/1
f 16/1/1 13/1/1 15/1/1
f 21/1/1 18/1/1 17/1/1
f 22/1/1 18/1/1 21/1/1
f 25/1/1 20/1/1 19/1/1
f 26/1/1 20/1/1 25/1/1
f 27/1/1 23/1/1 22/1/1
f 28/1/1 23/1/1 27/1/1
f 29/1/1 25/1/1 24/1/1
f 30/1/1 25/1/1 29/1/1
f 35/1/1 32/1/1 31/1/1
f 36/1/1 32/1/1 35/1/1
f 37/1/1 34/1/1 33/1/1
f 38/1/1 34/1/1 37/1/1
f 39/1/1 32/1/1 36/1/1
f 40/1/1 32/1/1 39/1/1
f 41/1/1 37/1/1 33/1/1
f 42/1/1 37/1/1 41/1/1
f 47/1/1 44/1/1 43/1/1
f 48/1/1 44/1/1 47/1/1
f 49/1/1 46/1/1 45/1/1
f 50/1/1 46/1/1 49/1/1
f 55/1/1 52/1/1 51/1/1
f 56/1/1 52/1/1 55/1/1
f 57/1/1 54/1/1 53/1/1
f 58/1/1 54/1/1 57/1/1
f 61/1/1 60/1/1 59/1/1
f 62/1/1 60/1/1 61/1/1
f 70/4/1 64/4/1 63/4/1
f 71/4/1 64/4/1 70/4/1
f 73/2/1 66/2/1 65/2/1
f 74/2/1 66/2/1 73/2/1
f 76/4/1 68/4/1 67/4/1
f 77/4/1 68/4/1 76/4/1
f 79/4/1 72/4/1 71/4/1
f 79/4/1 70/4/1 69/4/1
f 79/4/1 71/4/1 70/4/1
f 80/2/1 75/2/1 74/2/1
f 80/4/1 72/4/1 79/4/1
f 80/2/1 73/2/1 72/2/1
f 80/2/1 74/2/1 73/2/1
f 81/4/1 78/4/1 77/4/1
f 81/2/1 75/2/1 80/2/1
f 81/4/1 77/4/1 76/4/1
f 81/4/1 76/4/1 75/4/1
f 82/4/1 78/4/1 81/4/1
f 87/1/1 84/1/1 83/1/1
f 88/1/1 84/1/1 87/1/1
f 89/1/1 86/1/1 85/1/1
f 90/1/1 86/1/1 89/1/1
f 101/4/1 92/4/1 91/4/1
f 102/4/1 92/4/1 101/4/1
f 103/4/1 94/4/1 93/4/1
f 104/2/1 95/2/1 94/2/1
f 104/4/1 94/4/1 103/4/1
f 105/2/1 95/2/1 104/2/1
f 106/2/1 97/2/1 96/2/1
f 107/4/1 98/4/1 97/4/1
f 107/2/1 97/2/1 106/2/1
f 108/4/1 98/4/1 107/4/1
f 109/4/1 100/4/1 99/4/1
f 110/4/1 100/4/1 109/4/1
f 113/3/1 112/3/1 111/3/1
f 114/3/1 112/3/1 113/3/1
f 115/3/1 113/3/1 111/3/1
f 116/3/1 113/3/1 115/3/1
f 117/3/1 112/3/1 114/3/1
f 118/3/1 112/3/1 117/3/1
f 119/1/1 116/1/1 115/1/1
f 120/3/1 113/3/1 116/3/1
f 120/1/1 116/1/1 119/1/1
f 121/3/1 113/3/1 120/3/1
f 122/3/1 117/3/1 114/3/1
f 123/1/1 118/1/1 117/1/1
f 123/3/1 117/3/1 122/3/1
f 124/1/1 118/1/1 123/1/1
f 127/1/1 126/1/1 125/1/1
f 128/1/1 126/1/1 127/1/1
f 129/3/2 130/3/2 131/3/2
f 131/3/2 130/3/2 132/3/2
f 132/3/2 130/3/2 133/3/2
f 133/3/2 130/3/2 134/3/2
f 131/1/2 132/1/2 135/1/2
f 132/3/2 133/3/2 136/3/2
f 135/1/2 132/1/2 136/1/2
f 133/1/2 134/1/2 137/1/2
f 136/3/2 133/3/2 137/3/2
f 137/1/2 134/1/2 138/1/2
f 139/4/2 140/4/2 149/4/2
f 149/4/2 140/4/2 150/4/2
f 141/4/2 142/4/2 151/4/2
f 142/2/2 143/2/2 152/2/2
f 151/4/2 142/4/2 152/4/2
f 152/2/2 143/2/2 153/2/2
f 144/2/2 145/2/2 154/2/2
f 145/4/2 146/4/2 155/4/2
f 154/2/2 145/2/2 155/2/2
f 155/4/2 146/4/2 156/4/2
f 147/4/2 148/4/2 157/4/2
f 157/4/2 148/4/2 158/4/2
f 159/4/2 160/4/2 166/4/2
f 166/4/2 160/4/2 167/4/2
f 161/2/2 162/2/2 169/2/2
f 169/2/2 162/2/2 170/2/2
f 163/4/2 164/4/2 172/4/2
f 172/4/2 164/4/2 173/4/2
f 167/4/2 168/4/2 175/4/2
f 165/4/2 166/4/2 175/4/2
f 166/4/2 167/4/2 175/4/2
f 170/2/2 171/2/2 176/2/2
f 175/4/2 168/4/2 176/4/2
f 168/2/2 169/2/2 176/2/2
f 169/2/2 170/2/2 176/2/2
f 173/4/2 174/4/2 177/4/2
f 176/2/2 171/2/2 177/2/2
f 172/4/2 173/4/2 177/4/2
f 171/4/2 172/4/2 177/4/2
f 177/4/2 174/4/2 178/4/2
f 179/1/2 180/1/2 183/1/2
f 183/1/2 180/1/2 184/1/2
f 181/1/2 182/1/2 185/1/2
f 185/1/2 182/1/2 186/1/2
f 187/1/2 188/1/2 191/1/2
f 191/1/2 188/1/2 192/1/2
f 189/1/2 190/1/2 193/1/2
f 193/1/2 190/1/2 194/1/2
f 195/1/2 196/1/2 197/1/2
f 197/1/2 196/1/2 198/1/2
f 199/1/2 200/1/2 203/1/2
f 203/1/2 200/1/2 204/1/2
f 201/1/2 202/1/2 205/1/2
f 205/1/2 202/1/2 206/1/2
f 204/1/2 200/1/2 207/1/2
f 207/1/2 200/1/2 208/1/2
f 201/1/2 205/1/2 209/1/2
f 209/1/2 205/1/2 210/1/2
f 211/1/2 212/1/2 215/1/2
f 215/1/2 212/1/2 216/1/2
f 213/1/2 214/1/2 217/1/2
f 217/1/2 214/1/2 218/1/2
f 219/1/2 220/1/2 223/1/2
f 223/1/2 220/1/2 224/1/2
f 221/1/2 222/1/2 225/1/2
f 225/1/2 222/1/2 226/1/2
f 227/1/2 228/1/2 229/1/2
f 229/1/2 228/1/2 230/1/2
f 230/1/2 228/1/2 231/1/2
f 231/1/2 228/1/2 232/1/2
f 230/1/2 231/1/2 233/1/2
f 233/1/2 231/1/2 234/1/2
f 234/1/2 231/1/2 235/1/2
f 235/1/2 231/1/2 236/1/2
f 234/1/2 235/1/2 237/1/2
f 237/1/2 235/1/2 238/1/2
f 238/1/2 235/1/2 239/1/2
f 239/1/2 235/1/2 240/1/2
f 238/1/2 239/1/2 241/1/2
f 241/1/2 239/1/2 242/1/2
f 245/1/3 244/1/3 243/1/3
f 247/1/3 246/1/3 245/1/3
f 249/1/3 247/1/3 245/1/3
f 249/1/3 248/1/3 247/1/3
f 250/1/3 248/1/3 249/1/3
f 251/1/3 245/1/3 243/1/3
f 251/1/3 249/1/3 245/1/3
f 252/1/3 249/1/3 251/1/3
f 253/1/3 251/1/3 243/1/3
f 254/1/3 251/1/3 253/1/3
f 257/1/3 256/1/3 255/1/3
f 258/1/3 256/1/3 257/1/3
f 261/1/3 260/1/3 259/1/3
f 262/1/3 260/1/3 261/1/3
f 265/1/3 264/1/3 263/1/3
f 266/1/3 264/1/3 265/1/3
f 269/1/3 268/1/3 267/1/3
f 271/1/3 269/1/3 267/1/3
f 271/1/3 270/1/3 269/1/3
f 272/1/3 270/1/3 271/1/3
f 273/1/3 270/1/3 272/1/3
f 275/1/3 274/1/3 273/1/3
f 275/1/3 273/1/3 272/1/3
f 276/1/3 274/1/3 275/1/3
f 278/1/3 274/1/3 276/1/3
f 280/1/3 278/1/3 277/1/3
f 281/1/3 274/1/3 278/1/3
f 281/1/3 278/1/3 280/1/3
f 282/1/3 274/1/3 281/1/3
f 283/1/3 280/1/3 279/1/3
f 283/1/3 281/1/3 280/1/3
f 284/1/3 281/1/3 283/1/3
f 285/1/3 283/1/3 279/1/3
f 286/1/3 283/1/3 285/1/3
f 289/1/3 288/1/3 287/1/3
f 290/1/3 288/1/3 289/1/3
f 293/1/3 292/1/3 291/1/3
f 294/1/3 292/1/3 293/1/3
f 296/1/3 295/1/3 294/1/3
f 297/1/3 295/1/3 296/1/3
f 303/4/3 301/4/3 300/4/3
f 304/4/3 301/4/3 303/4/3
f 305/4/3 303/4/3 302/4/3
f 306/1/3 304/1/3 303/1/3
f 306/4/3 303/4/3 305/4/3
f 307/1/3 304/1/3 306/1/3
f 308/4/3 307/4/3 306/4/3
f 309/4/3 307/4/3 308/4/3
f 310/1/3 299/1/3 298/1/3
f 311/1/3 299/1/3 310/1/3
f 314/4/3 313/4/3 312/4/3
f 315/4/3 313/4/3 314/4/3
f 318/4/3 317/4/3 316/4/3
f 319/4/3 317/4/3 318/4/3
f 322/1/3 321/1/3 320/1/3
f 323/1/3 321/1/3 322/1/3
f 326/1/3 325/1/3 324/1/3
f 327/1/3 325/1/3 326/1/3
f 330/2/3 329/2/3 328/2/3
f 331/2/3 329/2/3 330/2/3
f 334/2/3 333/2/3 332/2/3
f 335/2/3 333/2/3 334/2/3
f 338/4/3 337/4/3 336/4/3
f 339/4/3 337/4/3 338/4/3
f 342/4/3 341/4/3 340/4/3
f 343/4/3 341/4/3 342/4/3
f 346/3/3 345/3/3 344/3/3
f 347/3/3 345/3/3 346/3/3
f 351/3/3 349/3/3 348/3/3
f 351/1/3 350/1/3 349/1/3
f 352/1/3 350/1/3 351/1/3
f 353/3/3 351/3/3 348/3/3
f 353/3/3 352/3/3 351/3/3
f 354/3/3 352/3/3 353/3/3
f 355/3/3 353/3/3 348/3/3
f 356/1/3 354/1/3 353/1/3
f 356/3/3 353/3/3 355/3/3
f 357/1/3 354/1/3 356/1/3
f 358/3/4 359/3/4 361/3/4
f 359/1/4 360/1/4 361/1/4
f 361/1/4 360/1/4 362/1/4
f 358/3/4 361/3/4 363/3/4
f 361/3/4 362/3/4 363/3/4
f 363/3/4 362/3/4 364/3/4
f 358/3/4 363/3/4 365/3/4
f 363/1/4 364/1/4 366/1/4
f 365/3/4 363/3/4 366/3/4
f 366/1/4 364/1/4 367/1/4
f 368/3/4 369/3/4 370/3/4
f 370/3/4 369/3/4 371/3/4
f 372/4/4 373/4/4 374/4/4
f 374/4/4 373/4/4 375/4/4
f 376/4/4 377/4/4 378/4/4
f 378/4/4 377/4/4 379/4/4
f 380/2/4 381/2/4 382/2/4
f 382/2/4 381/2/4 383/2/4
f 384/2/4 385/2/4 386/2/4
f 386/2/4 385/2/4 387/2/4
f 388/1/4 389/1/4 390/1/4
f 390/1/4 389/1/4 391/1/4
f 392/4/4 393/4/4 394/4/4
f 394/4/4 393/4/4 395/4/4
f 396/4/4 397/4/4 398/4/4
f 398/4/4 397/4/4 399/4/4
f 400/1/4 401/1/4 402/1/4
f 402/1/4 401/1/4 403/1/4
f 404/1/4 405/1/4 406/1/4
f 406/1/4 405/1/4 407/1/4
f 407/1/4 408/1/4 409/1/4
f 409/1/4 408/1/4 410/1/4
f 413/4/4 414/4/4 416/4/4
f 416/4/4 414/4/4 417/4/4
f 415/4/4 416/4/4 418/4/4
f 416/1/4 417/1/4 419/1/4
f 418/4/4 416/4/4 419/4/4
f 419/1/4 417/1/4 420/1/4
f 419/4/4 420/4/4 421/4/4
f 421/4/4 420/4/4 422/4/4
f 411/1/4 412/1/4 423/1/4
f 423/1/4 412/1/4 424/1/4
f 425/1/4 426/1/4 427/1/4
f 427/1/4 426/1/4 428/1/4
f 429/1/4 430/1/4 431/1/4
f 429/1/4 431/1/4 433/1/4
f 431/1/4 432/1/4 433/1/4
f 433/1/4 432/1/4 434/1/4
f 434/1/4 432/1/4 435/1/4
f 435/1/4 436/1/4 437/1/4
f 434/1/4 435/1/4 437/1/4
f 437/1/4 436/1/4 438/1/4
f 438/1/4 436/1/4 440/1/4
f 439/1/4 440/1/4 442/1/4
f 440/1/4 436/1/4 443/1/4
f 442/1/4 440/1/4 443/1/4
f 443/1/4 436/1/4 444/1/4
f 441/1/4 442/1/4 445/1/4
f 442/1/4 443/1/4 445/1/4
f 445/1/4 443/1/4 446/1/4
f 441/1/4 445/1/4 447/1/4
f 447/1/4 445/1/4 448/1/4
f 449/1/4 450/1/4 451/1/4
f 451/1/4 450/1/4 452/1/4
f 453/1/4 454/1/4 455/1/4
f 455/1/4 454/1/4 456/1/4
f 457/1/4 458/1/4 459/1/4
f 459/1/4 458/1/4 460/1/4
f 461/1/4 462/1/4 463/1/4
f 463/1/4 464/1/4 465/1/4
f 463/1/4 465/1/4 467/1/4
f 465/1/4 466/1/4 467/1/4
f 467/1/4 466/1/4 468/1/4
f 461/1/4 463/1/4 469/1/4
f 463/1/4 467/1/4 469/1/4
f 469/1/4 467/1/4 470/1/4
f 461/1/4 469/1/4 471/1/4
f 471/1/4 469/1/4 472/1/4
f 475/1/5 474/1/5 473/1/5
f 476/1/5 474/1/5 475/1/5
f 477/1/5 475/1/5 473/1/5
f 478/3/5 476/3/5 475/3/5
f 478/1/5 475/1/5 477/1/5
f 479/1/5 474/1/5 476/1/5
f 479/3/5 476/3/5 478/3/5
f 480/1/5 474/1/5 479/1/5
f 481/3/5 478/3/5 477/3/5
f 481/1/5 477/1/5 473/1/5
f 482/3/5 478/3/5 481/3/5
f 483/3/5 480/3/5 479/3/5
f 484/1/5 474/1/5 480/1/5
f 484/3/5 480/3/5 483/3/5
f 485/3/5 483/3/5 482/3/5
f 485/1/5 482/1/5 481/1/5
f 486/1/5 484/1/5 483/1/5
f 486/3/5 483/3/5 485/3/5
f 487/1/5 485/1/5 481/1/5
f 487/1/5 481/1/5 473/1/5
f 487/1/5 486/1/5 485/1/5
f 488/1/5 474/1/5 484/1/5
f 488/1/5 486/1/5 487/1/5
f 488/1/5 484/1/5 486/1/5
f 492/4/5 490/4/5 489/4/5
f 493/4/5 490/4/5 492/4/5
f 494/4/5 490/4/5 493/4/5
f 495/4/5 490/4/5 494/4/5
f 497/4/5 492/4/5 491/4/5
f 497/4/5 493/4/5 492/4/5
f 498/4/5 493/4/5 497/4/5
f 499/4/5 496/4/5 495/4/5
f 499/4/5 495/4/5 494/4/5
f 500/4/5 496/4/5 499/4/5
f 501/4/5 493/4/5 498/4/5
f 502/1/5 494/1/5 493/1/5
f 502/4/5 493/4/5 501/4/5
f 503/4/5 499/4/5 494/4/5
f 503/1/5 494/1/5 502/1/5
f 504/4/5 499/4/5 503/4/5
f 506/2/5 502/2/5 501/2/5
f 506/2/5 503/2/5 502/2/5
f 506/2/5 504/2/5 503/2/5
f 507/2/5 504/2/5 506/2/5
f 509/2/5 507/2/5 506/2/5
f 509/2/5 508/2/5 507/2/5
f 509/2/5 506/2/5 505/2/5
f 510/2/5 508/2/5 509/2/5
f 511/2/5 508/2/5 510/2/5
f 512/2/5 508/2/5 511/2/5
f 513/2/5 511/2/5 510/2/5
f 514/2/5 511/2/5 513/2/5
f 515/2/5 511/2/5 514/2/5
f 516/2/5 511/2/5 515/2/5
f 518/4/5 514/4/5 513/4/5
f 519/4/5 516/4/5 515/4/5
f 521/4/5 518/4/5 517/4/5
f 522/4/5 514/4/5 518/4/5
f 522/4/5 518/4/5 521/4/5
f 523/1/5 515/1/5 514/1/5
f 523/4/5 514/4/5 522/4/5
f 524/4/5 519/4/5 515/4/5
f 524/1/5 515/1/5 523/1/5
f 524/4/5 520/4/5 519/4/5
f 525/4/5 520/4/5 524/4/5
f 526/4/5 520/4/5 525/4/5
f 527/4/5 523/4/5 522/4/5
f 527/4/5 525/4/5 524/4/5
f 527/4/5 524/4/5 523/4/5
f 528/4/5 525/4/5 527/4/5
f 533/4/5 530/4/5 529/4/5
f 534/4/5 530/4/5 533/4/5
f 535/4/5 532/4/5 531/4/5
f 536/4/5 532/4/5 535/4/5
f 541/4/5 538/4/5 537/4/5
f 542/4/5 538/4/5 541/4/5
f 543/4/5 540/4/5 539/4/5
f 544/4/5 540/4/5 543/4/5
f 545/2/5 542/2/5 541/2/5
f 546/2/5 542/2/5 545/2/5
f 547/2/5 544/2/5 543/2/5
f 548/2/5 544/2/5 547/2/5
f 553/2/5 550/2/5 549/2/5
f 554/2/5 550/2/5 553/2/5
f 555/2/5 552/2/5 551/2/5
f 556/2/5 552/2/5 555/2/5
f 557/4/5 554/4/5 553/4/5
f 558/4/5 554/4/5 557/4/5
f 559/4/5 556/4/5 555/4/5
f 560/4/5 556/4/5 559/4/5
f 565/4/5 562/4/5 561/4/5
f 566/4/5 562/4/5 565/4/5
f 567/4/5 564/4/5 563/4/5
f 568/4/5 564/4/5 567/4/5
f 573/3/5 570/3/5 569/3/5
f 573/3/5 572/3/5 571/3/5
f 573/3/5 571/3/5 570/3/5
f 574/3/5 572/3/5 573/3/5
f 575/3/5 574/3/5 573/3/5
f 576/3/5 574/3/5 575/3/5
f 577/3/5 574/3/5 576/3/5
f 578/3/5 574/3/5 577/3/5
f 579/3/5 574/3/5 578/3/5
f 581/3/5 575/3/5 573/3/5
f 582/3/5 579/3/5 578/3/5
f 582/3/5 580/3/5 579/3/5
f 583/3/5 581/3/5 573/3/5
f 584/3/5 580/3/5 582/3/5
f 585/3/5 583/3/5 573/3/5
f 588/3/5 580/3/5 584/3/5
f 589/3/5 580/3/5 588/3/5
f 590/3/5 580/3/5 589/3/5
f 591/3/5 587/3/5 586/3/5
f 591/3/5 585/3/5 573/3/5
f 591/3/5 589/3/5 588/3/5
f 591/3/5 588/3/5 587/3/5
f 591/3/5 586/3/5 585/3/5
f 592/3/5 589/3/5 591/3/5
f 593/3/5 592/3/5 591/3/5
f 594/3/5 592/3/5 593/3/5
f 595/3/5 592/3/5 594/3/5
f 596/3/5 592/3/5 595/3/5
f 597/3/6 598/3/6 599/3/6
f 599/3/6 598/3/6 600/3/6
f 601/1/6 602/1/6 605/1/6
f 605/1/6 602/1/6 606/1/6
f 603/1/6 604/1/6 607/1/6
f 607/1/6 604/1/6 608/1/6
f 609/1/6 610/1/6 613/1/6
f 613/1/6 610/1/6 614/1/6
f 611/1/6 612/1/6 615/1/6
f 615/1/6 612/1/6 616/1/6
f 617/1/6 618/1/6 621/1/6
f 621/1/6 618/1/6 622/1/6
f 619/1/6 620/1/6 623/1/6
f 623/1/6 620/1/6 624/1/6
f 625/1/6 626/1/6 629/1/6
f 629/1/6 626/1/6 630/1/6
f 627/1/6 628/1/6 631/1/6
f 631/1/6 628/1/6 632/1/6
f 633/1/6 634/1/6 636/1/6
f 636/1/6 634/1/6 637/1/6
f 637/1/6 634/1/6 638/1/6
f 638/1/6 634/1/6 639/1/6
f 635/1/6 636/1/6 643/1/6
f 636/1/6 637/1/6 643/1/6
f 643/1/6 637/1/6 644/1/6
f 638/1/6 639/1/6 645/1/6
f 639/1/6 640/1/6 645/1/6
f 645/1/6 640/1/6 646/1/6
f 647/1/6 648/1/6 649/1/6
f 649/1/6 648/1/6 650/1/6
f 641/1/6 642/1/6 651/1/6
f 651/1/6 642/1/6 652/1/6
f 653/1/6 654/1/6 657/1/6
f 657/1/6 654/1/6 658/1/6
f 655/1/6 656/1/6 663/1/6
f 663/1/6 656/1/6 664/1/6
f 659/1/6 660/1/6 665/1/6
f 665/1/6 660/1/6 666/1/6
f 666/1/6 660/1/6 667/1/6
f 661/1/6 662/1/6 668/1/6
f 668/1/6 662/1/6 669/1/6
f 669/1/6 662/1/6 670/1/6
f 666/1/6 667/1/6 671/1/6
f 668/1/6 669/1/6 671/1/6
f 667/1/6 668/1/6 671/1/6
f 671/1/6 669/1/6 672/1/6
f 673/1/6 674/1/6 677/1/6
f 677/1/6 674/1/6 678/1/6
f 679/1/6 680/1/6 681/1/6
f 675/1/6 676/1/6 684/1/6
f 684/1/6 676/1/6 685/1/6
f 681/1/6 682/1/6 686/1/6
f 679/1/6 681/1/6 686/1/6
f 686/1/6 682/1/6 687/1/6
f 683/1/6 684/1/6 688/1/6
f 688/1/6 684/1/6 689/1/6
f 690/1/6 691/1/6 694/1/6
f 694/1/6 691/1/6 695/1/6
f 692/1/6 693/1/6 697/1/6
f 697/1/6 693/1/6 698/1/6
f 695/1/6 696/1/6 699/1/6
f 699/1/6 696/1/6 700/1/6
f 692/1/6 697/1/6 703/1/6
f 703/1/6 697/1/6 704/1/6
f 701/1/6 702/1/6 705/1/6
f 705/1/6 702/1/6 706/1/6
f 707/1/6 708/1/6 710/1/6
f 710/1/6 708/1/6 711/1/6
f 711/1/6 708/1/6 712/1/6
f 712/1/6 708/1/6 713/1/6
f 709/1/6 710/1/6 716/1/6
f 710/1/6 711/1/6 716/1/6
f 715/1/6 716/1/6 717/1/6
f 716/1/6 711/1/6 718/1/6
f 717/1/6 716/1/6 718/1/6
f 713/1/6 714/1/6 719/1/6
f 712/1/6 713/1/6 719/1/6
f 719/1/6 714/1/6 720/1/6
f 718/1/6 711/1/6 721/1/6
f 721/1/6 711/1/6 722/1/6
f 722/1/6 711/1/6 723/1/6
f 712/1/6 719/1/6 724/1/6
f 722/1/6 723/1/6 725/1/6
f 723/1/6 724/1/6 725/1/6
f 724/1/6 719/1/6 726/1/6
f 725/1/6 724/1/6 726/1/6
f 727/1/6 728/1/6 729/1/6
f 729/1/6 728/1/6 730/1/6
