# MagicaVoxel @ Ephtracy

# group
o LeftArm_2

# material
mtllib kiritan-0-LeftArm_2.mtl
usemtl palette

# normals
vn -1 0 0
vn 1 0 0
vn 0 0 1
vn 0 0 -1
vn 0 -1 0
vn 0 1 0

# texcoords
vt 0.939453 0.5
vt 0.951172 0.5

# verts
v -0.5 4.4 -2.4
v -0.5 4.4 -2.8
v -0.5 4.6 -2.4
v -0.5 4.6 -2.8
v -0.3 4.4 -2.3
v -0.3 4.4 -2.4
v -0.3 4.6 -2.4
v -0.3 4.6 -2.8
v -0.3 4.6 -2.9
v -0.3 4.7 -2.8
v -0.3 4.7 -2.9
v -0.3 4.8 -2.3
v -0.3 4.8 -2.8
v -0.2 4.5 -2.4
v -0.2 4.5 -2.5
v -0.2 4.6 -2.4
v -0.2 4.6 -2.5
v -0.2 4.7 -2.8
v -0.2 4.7 -2.9
v -0.2 4.8 -2.8
v -0.2 4.8 -2.9
v -0.3 4.4 -2.6
v -0.3 4.4 -2.8
v -0.3 4.5 -2.4
v -0.3 4.5 -2.5
v -0.3 4.6 -2.4
v -0.3 4.6 -2.5
v -0.3 4.6 -2.6
v -0.3 4.6 -2.8
v 0.1 4.4 -2.3
v 0.1 4.4 -2.6
v 0.1 4.6 -2.6
v 0.1 4.6 -2.9
v 0.1 4.8 -2.3
v 0.1 4.8 -2.9
v -0.3 4.4 -2.3
v -0.3 4.8 -2.3
v 0.1 4.4 -2.3
v 0.1 4.8 -2.3
v -0.5 4.4 -2.4
v -0.5 4.6 -2.4
v -0.3 4.4 -2.4
v -0.3 4.6 -2.4
v -0.3 4.5 -2.5
v -0.3 4.6 -2.5
v -0.2 4.5 -2.5
v -0.2 4.6 -2.5
v -0.3 4.5 -2.4
v -0.3 4.6 -2.4
v -0.2 4.5 -2.4
v -0.2 4.6 -2.4
v -0.3 4.4 -2.6
v -0.3 4.6 -2.6
v 0.1 4.4 -2.6
v 0.1 4.6 -2.6
v -0.5 4.4 -2.8
v -0.5 4.6 -2.8
v -0.3 4.4 -2.8
v -0.3 4.6 -2.8
v -0.3 4.7 -2.8
v -0.3 4.8 -2.8
v -0.2 4.7 -2.8
v -0.2 4.8 -2.8
v -0.3 4.6 -2.9
v -0.3 4.7 -2.9
v -0.2 4.7 -2.9
v -0.2 4.8 -2.9
v 0.1 4.6 -2.9
v 0.1 4.8 -2.9
v -0.3 4.4 -2.3
v 0.1 4.4 -2.3
v -0.5 4.4 -2.4
v -0.3 4.4 -2.4
v -0.3 4.4 -2.6
v 0.1 4.4 -2.6
v -0.5 4.4 -2.8
v -0.3 4.4 -2.8
v -0.3 4.6 -2.4
v -0.2 4.6 -2.4
v -0.3 4.6 -2.5
v -0.2 4.6 -2.5
v -0.3 4.6 -2.6
v 0.1 4.6 -2.6
v -0.3 4.6 -2.8
v -0.3 4.6 -2.9
v 0.1 4.6 -2.9
v -0.3 4.5 -2.4
v -0.2 4.5 -2.4
v -0.3 4.5 -2.5
v -0.2 4.5 -2.5
v -0.5 4.6 -2.4
v -0.3 4.6 -2.4
v -0.5 4.6 -2.8
v -0.3 4.6 -2.8
v -0.3 4.7 -2.8
v -0.2 4.7 -2.8
v -0.3 4.7 -2.9
v -0.2 4.7 -2.9
v -0.3 4.8 -2.3
v 0.1 4.8 -2.3
v -0.3 4.8 -2.8
v -0.2 4.8 -2.8
v -0.2 4.8 -2.9
v 0.1 4.8 -2.9

# faces
f 3/1/1 2/1/1 1/1/1
f 4/1/1 2/1/1 3/1/1
f 7/1/1 6/1/1 5/1/1
f 10/1/1 8/1/1 7/1/1
f 10/1/1 9/1/1 8/1/1
f 11/1/1 9/1/1 10/1/1
f 12/1/1 7/1/1 5/1/1
f 12/1/1 10/1/1 7/1/1
f 13/1/1 10/1/1 12/1/1
f 16/1/1 15/1/1 14/1/1
f 17/1/1 15/1/1 16/1/1
f 20/1/1 19/1/1 18/1/1
f 21/1/1 19/1/1 20/1/1
f 24/1/2 25/1/2 26/1/2
f 26/1/2 25/1/2 27/1/2
f 22/1/2 23/1/2 28/1/2
f 28/1/2 23/1/2 29/1/2
f 30/1/2 31/1/2 32/1/2
f 30/1/2 32/1/2 34/1/2
f 32/1/2 33/1/2 34/1/2
f 34/1/2 33/1/2 35/1/2
f 38/1/3 37/1/3 36/1/3
f 39/1/3 37/1/3 38/1/3
f 42/1/3 41/1/3 40/1/3
f 43/1/3 41/1/3 42/1/3
f 46/1/3 45/1/3 44/1/3
f 47/1/3 45/1/3 46/1/3
f 48/1/4 49/1/4 50/1/4
f 50/1/4 49/1/4 51/1/4
f 52/1/4 53/1/4 54/1/4
f 54/1/4 53/1/4 55/1/4
f 56/1/4 57/1/4 58/1/4
f 58/1/4 57/1/4 59/1/4
f 60/1/4 61/1/4 62/1/4
f 62/1/4 61/1/4 63/1/4
f 64/1/4 65/1/4 66/1/4
f 64/1/4 66/1/4 68/1/4
f 66/1/4 67/1/4 68/1/4
f 68/1/4 67/1/4 69/1/4
f 73/1/5 71/1/5 70/1/5
f 74/1/5 71/1/5 73/1/5
f 74/1/5 73/1/5 72/1/5
f 75/1/5 71/1/5 74/1/5
f 76/1/5 74/1/5 72/1/5
f 77/1/5 74/1/5 76/1/5
f 80/1/5 79/1/5 78/1/5
f 81/1/5 79/1/5 80/1/5
f 84/1/5 83/1/5 82/1/5
f 85/1/5 83/1/5 84/1/5
f 86/1/5 83/1/5 85/1/5
f 87/1/6 88/1/6 89/1/6
f 89/1/6 88/1/6 90/1/6
f 91/1/6 92/1/6 93/1/6
f 93/1/6 92/1/6 94/1/6
f 95/1/6 96/1/6 97/1/6
f 97/1/6 96/1/6 98/1/6
f 99/1/6 100/1/6 101/1/6
f 101/1/6 100/1/6 102/1/6
f 102/1/6 100/1/6 103/1/6
f 103/1/6 100/1/6 104/1/6
