# MagicaVoxel @ Ephtracy

# group
o Body

# material
mtllib kiritan-12-Body.mtl
usemtl palette

# normals
vn -1 0 0
vn 1 0 0
vn 0 0 1
vn 0 0 -1
vn 0 -1 0
vn 0 1 0

# texcoords
vt 0.814453 0.5
vt 0.845703 0.5
vt 0.908203 0.5
vt 0.912109 0.5
vt 0.939453 0.5
vt 0.951172 0.5
vt 0.955078 0.5
vt 0.962891 0.5
vt 0.970703 0.5
vt 0.994141 0.5

# verts
v -0.6 2.9 0.8
v -0.6 2.9 0.1
v -0.6 2.9 -0.1
v -0.6 2.9 -0.3
v -0.6 2.9 -0.5
v -0.6 2.9 -0.8
v -0.6 3 -0.1
v -0.6 3 -0.3
v -0.6 3.2 0.1
v -0.6 3.2 0
v -0.6 3.2 -0.1
v -0.6 3.2 -0.3
v -0.6 3.2 -0.4
v -0.6 3.2 -0.5
v -0.6 3.3 0
v -0.6 3.3 -0.1
v -0.6 3.7 0.8
v -0.6 3.7 -0.1
v -0.6 3.7 -0.4
v -0.6 3.7 -0.8
v -0.6 4.1 0.8
v -0.6 4.1 -0.1
v -0.6 4.1 -0.4
v -0.6 4.1 -0.8
v -0.6 4.3 0
v -0.6 4.3 -0.1
v -0.6 4.4 0.2
v -0.6 4.4 0
v -0.6 4.5 0.8
v -0.6 4.5 0.6
v -0.6 4.5 0.3
v -0.6 4.5 0.2
v -0.6 4.5 -0.3
v -0.6 4.5 -0.4
v -0.6 4.5 -0.6
v -0.6 4.5 -0.8
v -0.6 4.6 0.4
v -0.6 4.6 0.3
v -0.6 4.6 -0.3
v -0.6 4.6 -0.4
v -0.6 4.7 0.6
v -0.6 4.7 0.5
v -0.6 4.7 0.4
v -0.6 4.7 0.2
v -0.6 4.7 0.1
v -0.6 4.7 -0.1
v -0.6 4.7 -0.2
v -0.6 4.7 -0.4
v -0.6 4.7 -0.5
v -0.6 4.7 -0.6
v -0.6 4.8 0.5
v -0.6 4.8 0.4
v -0.6 4.8 0.2
v -0.6 4.8 0.1
v -0.6 4.8 -0.1
v -0.6 4.8 -0.2
v -0.6 4.8 -0.4
v -0.6 4.8 -0.5
v -0.5 2.9 0.9
v -0.5 2.9 0.8
v -0.5 2.9 -0.8
v -0.5 2.9 -0.9
v -0.5 3.1 0.9
v -0.5 3.1 0.8
v -0.5 3.1 -0.8
v -0.5 3.1 -0.9
v -0.5 4.5 0.7
v -0.5 4.5 0.6
v -0.5 4.5 -0.6
v -0.5 4.5 -0.7
v -0.5 4.7 0.7
v -0.5 4.7 0.6
v -0.5 4.7 0.5
v -0.5 4.7 -0.5
v -0.5 4.7 -0.6
v -0.5 4.7 -0.7
v -0.5 4.8 0.6
v -0.5 4.8 0.5
v -0.5 4.8 -0.5
v -0.5 4.8 -0.6
v -0.4 4.5 0.8
v -0.4 4.5 0.7
v -0.4 4.5 -0.7
v -0.4 4.5 -0.8
v -0.4 4.7 0.8
v -0.4 4.7 0.7
v -0.4 4.7 -0.7
v -0.4 4.7 -0.8
v -0.4 4.8 0.3
v -0.4 4.8 0.2
v -0.4 4.8 0.1
v -0.4 4.8 -0.1
v -0.4 4.8 -0.2
v -0.4 4.8 -0.3
v -0.4 4.9 0.3
v -0.4 4.9 0.2
v -0.4 4.9 0.1
v -0.4 4.9 -0.1
v -0.4 4.9 -0.2
v -0.4 4.9 -0.3
v -0.3 3.1 0.9
v -0.3 3.1 0.8
v -0.3 3.1 -0.8
v -0.3 3.1 -0.9
v -0.3 3.3 0.9
v -0.3 3.3 0.8
v -0.3 3.3 -0.8
v -0.3 3.3 -0.9
v -0.3 4.9 0.1
v -0.3 4.9 -0.1
v -0.3 5 0.1
v -0.3 5 -0.1
v 0.3 3.1 0.9
v 0.3 3.1 0.8
v 0.3 3.1 -0.8
v 0.3 3.1 -0.9
v 0.3 3.3 0.9
v 0.3 3.3 0.8
v 0.3 3.3 -0.8
v 0.3 3.3 -0.9
v 0.3 4.9 0.1
v 0.3 4.9 -0.1
v 0.3 5 0.1
v 0.3 5 -0.1
v 0.4 4.5 0.8
v 0.4 4.5 0.7
v 0.4 4.5 -0.7
v 0.4 4.5 -0.8
v 0.4 4.7 0.8
v 0.4 4.7 0.7
v 0.4 4.7 -0.7
v 0.4 4.7 -0.8
v 0.4 4.8 0.3
v 0.4 4.8 0.2
v 0.4 4.8 0.1
v 0.4 4.8 -0.1
v 0.4 4.8 -0.2
v 0.4 4.8 -0.3
v 0.4 4.9 0.3
v 0.4 4.9 0.2
v 0.4 4.9 0.1
v 0.4 4.9 -0.1
v 0.4 4.9 -0.2
v 0.4 4.9 -0.3
v 0.5 2.9 0.9
v 0.5 2.9 0.8
v 0.5 2.9 -0.8
v 0.5 2.9 -0.9
v 0.5 3.1 0.9
v 0.5 3.1 0.8
v 0.5 3.1 -0.8
v 0.5 3.1 -0.9
v 0.5 4.5 0.7
v 0.5 4.5 0.6
v 0.5 4.5 -0.6
v 0.5 4.5 -0.7
v 0.5 4.7 0.7
v 0.5 4.7 0.6
v 0.5 4.7 0.5
v 0.5 4.7 -0.5
v 0.5 4.7 -0.6
v 0.5 4.7 -0.7
v 0.5 4.8 0.6
v 0.5 4.8 0.5
v 0.5 4.8 -0.5
v 0.5 4.8 -0.6
v 0.6 2.9 0.8
v 0.6 2.9 -0.8
v 0.6 3.7 0.8
v 0.6 3.7 0.4
v 0.6 3.7 -0.4
v 0.6 3.7 -0.8
v 0.6 3.8 0.6
v 0.6 3.8 0.4
v 0.6 3.8 -0.4
v 0.6 3.8 -0.6
v 0.6 3.9 0.7
v 0.6 3.9 0.6
v 0.6 3.9 -0.6
v 0.6 3.9 -0.7
v 0.6 4 0.8
v 0.6 4 0.7
v 0.6 4 -0.7
v 0.6 4 -0.8
v 0.6 4.1 0.8
v 0.6 4.1 0.7
v 0.6 4.1 -0.7
v 0.6 4.1 -0.8
v 0.6 4.5 0.8
v 0.6 4.5 0.6
v 0.6 4.5 0.2
v 0.6 4.5 -0.2
v 0.6 4.5 -0.6
v 0.6 4.5 -0.8
v 0.6 4.6 0.3
v 0.6 4.6 0.2
v 0.6 4.6 -0.2
v 0.6 4.6 -0.3
v 0.6 4.7 0.6
v 0.6 4.7 0.5
v 0.6 4.7 0.4
v 0.6 4.7 0.3
v 0.6 4.7 0.2
v 0.6 4.7 0.1
v 0.6 4.7 -0.1
v 0.6 4.7 -0.2
v 0.6 4.7 -0.3
v 0.6 4.7 -0.4
v 0.6 4.7 -0.5
v 0.6 4.7 -0.6
v 0.6 4.8 0.5
v 0.6 4.8 0.4
v 0.6 4.8 0.2
v 0.6 4.8 0.1
v 0.6 4.8 -0.1
v 0.6 4.8 -0.2
v 0.6 4.8 -0.4
v 0.6 4.8 -0.5
v -0.5 2.9 0.9
v -0.5 3.1 0.9
v -0.3 3.1 0.9
v -0.3 3.3 0.9
v 0.3 3.1 0.9
v 0.3 3.3 0.9
v 0.5 2.9 0.9
v 0.5 3.1 0.9
v -0.6 2.9 0.8
v -0.6 3.7 0.8
v -0.6 4.1 0.8
v -0.6 4.5 0.8
v -0.5 2.9 0.8
v -0.5 3.1 0.8
v -0.4 4.5 0.8
v -0.4 4.7 0.8
v -0.3 3.1 0.8
v -0.3 3.3 0.8
v 0.3 3.1 0.8
v 0.3 3.3 0.8
v 0.4 4.5 0.8
v 0.4 4.7 0.8
v 0.5 2.9 0.8
v 0.5 3.1 0.8
v 0.5 4 0.8
v 0.5 4.1 0.8
v 0.6 2.9 0.8
v 0.6 3.7 0.8
v 0.6 4 0.8
v 0.6 4.1 0.8
v 0.6 4.5 0.8
v -0.5 4.5 0.7
v -0.5 4.7 0.7
v -0.4 4.5 0.7
v -0.4 4.7 0.7
v 0.4 4.5 0.7
v 0.4 4.7 0.7
v 0.5 4.5 0.7
v 0.5 4.7 0.7
v -0.6 4.5 0.6
v -0.6 4.7 0.6
v -0.5 4.5 0.6
v -0.5 4.7 0.6
v -0.5 4.8 0.6
v 0.5 4.5 0.6
v 0.5 4.7 0.6
v 0.5 4.8 0.6
v 0.6 4.5 0.6
v 0.6 4.7 0.6
v -0.6 4.7 0.5
v -0.6 4.8 0.5
v -0.5 4.7 0.5
v -0.5 4.8 0.5
v 0.5 4.7 0.5
v 0.5 4.8 0.5
v 0.6 4.7 0.5
v 0.6 4.8 0.5
v -0.4 4.8 0.3
v -0.4 4.9 0.3
v 0.4 4.8 0.3
v 0.4 4.9 0.3
v -0.3 4.9 0.1
v -0.3 5 0.1
v 0.3 4.9 0.1
v 0.3 5 0.1
v -0.3 4.9 -0.1
v -0.3 5 -0.1
v 0.3 4.9 -0.1
v 0.3 5 -0.1
v -0.4 4.8 -0.3
v -0.4 4.9 -0.3
v 0.4 4.8 -0.3
v 0.4 4.9 -0.3
v -0.6 4.7 -0.5
v -0.6 4.8 -0.5
v -0.5 4.7 -0.5
v -0.5 4.8 -0.5
v 0.5 4.7 -0.5
v 0.5 4.8 -0.5
v 0.6 4.7 -0.5
v 0.6 4.8 -0.5
v -0.6 4.5 -0.6
v -0.6 4.7 -0.6
v -0.5 4.5 -0.6
v -0.5 4.7 -0.6
v -0.5 4.8 -0.6
v 0.5 4.5 -0.6
v 0.5 4.7 -0.6
v 0.5 4.8 -0.6
v 0.6 4.5 -0.6
v 0.6 4.7 -0.6
v -0.5 4.5 -0.7
v -0.5 4.7 -0.7
v -0.4 4.5 -0.7
v -0.4 4.7 -0.7
v 0.4 4.5 -0.7
v 0.4 4.7 -0.7
v 0.5 4.5 -0.7
v 0.5 4.7 -0.7
v -0.6 2.9 -0.8
v -0.6 3.7 -0.8
v -0.6 4.1 -0.8
v -0.6 4.5 -0.8
v -0.5 2.9 -0.8
v -0.5 3.1 -0.8
v -0.4 4.5 -0.8
v -0.4 4.7 -0.8
v -0.3 3.1 -0.8
v -0.3 3.3 -0.8
v 0.3 3.1 -0.8
v 0.3 3.3 -0.8
v 0.4 4.5 -0.8
v 0.4 4.7 -0.8
v 0.5 2.9 -0.8
v 0.5 3.1 -0.8
v 0.5 4 -0.8
v 0.5 4.1 -0.8
v 0.6 2.9 -0.8
v 0.6 3.7 -0.8
v 0.6 4 -0.8
v 0.6 4.1 -0.8
v 0.6 4.5 -0.8
v -0.5 2.9 -0.9
v -0.5 3.1 -0.9
v -0.3 3.1 -0.9
v -0.3 3.3 -0.9
v 0.3 3.1 -0.9
v 0.3 3.3 -0.9
v 0.5 2.9 -0.9
v 0.5 3.1 -0.9
v -0.5 2.9 0.9
v 0.5 2.9 0.9
v -0.6 2.9 0.8
v -0.5 2.9 0.8
v 0.5 2.9 0.8
v 0.6 2.9 0.8
v -0.6 2.9 0.1
v -0.5 2.9 0.1
v -0.6 2.9 -0.1
v -0.5 2.9 -0.1
v -0.6 2.9 -0.3
v -0.5 2.9 -0.3
v -0.6 2.9 -0.5
v -0.5 2.9 -0.5
v -0.6 2.9 -0.8
v -0.5 2.9 -0.8
v 0.5 2.9 -0.8
v 0.6 2.9 -0.8
v -0.5 2.9 -0.9
v 0.5 2.9 -0.9
v -0.5 3.1 0.9
v -0.3 3.1 0.9
v 0.3 3.1 0.9
v 0.5 3.1 0.9
v -0.5 3.1 0.8
v -0.3 3.1 0.8
v 0.3 3.1 0.8
v 0.5 3.1 0.8
v -0.5 3.1 -0.8
v -0.3 3.1 -0.8
v 0.3 3.1 -0.8
v 0.5 3.1 -0.8
v -0.5 3.1 -0.9
v -0.3 3.1 -0.9
v 0.3 3.1 -0.9
v 0.5 3.1 -0.9
v -0.3 3.3 0.9
v 0.3 3.3 0.9
v -0.3 3.3 0.8
v 0.3 3.3 0.8
v -0.3 3.3 -0.8
v 0.3 3.3 -0.8
v -0.3 3.3 -0.9
v 0.3 3.3 -0.9
v -0.6 4.5 0.8
v -0.4 4.5 0.8
v 0.4 4.5 0.8
v 0.6 4.5 0.8
v -0.5 4.5 0.7
v -0.4 4.5 0.7
v 0.4 4.5 0.7
v 0.5 4.5 0.7
v -0.6 4.5 0.6
v -0.5 4.5 0.6
v 0.5 4.5 0.6
v 0.6 4.5 0.6
v -0.6 4.5 -0.6
v -0.5 4.5 -0.6
v 0.5 4.5 -0.6
v 0.6 4.5 -0.6
v -0.5 4.5 -0.7
v -0.4 4.5 -0.7
v 0.4 4.5 -0.7
v 0.5 4.5 -0.7
v -0.6 4.5 -0.8
v -0.4 4.5 -0.8
v 0.4 4.5 -0.8
v 0.6 4.5 -0.8
v -0.4 4.7 0.8
v 0.4 4.7 0.8
v -0.5 4.7 0.7
v -0.4 4.7 0.7
v 0.4 4.7 0.7
v 0.5 4.7 0.7
v -0.6 4.7 0.6
v -0.5 4.7 0.6
v 0.5 4.7 0.6
v 0.6 4.7 0.6
v -0.6 4.7 0.5
v -0.5 4.7 0.5
v 0.5 4.7 0.5
v 0.6 4.7 0.5
v -0.6 4.7 -0.5
v -0.5 4.7 -0.5
v 0.5 4.7 -0.5
v 0.6 4.7 -0.5
v -0.6 4.7 -0.6
v -0.5 4.7 -0.6
v 0.5 4.7 -0.6
v 0.6 4.7 -0.6
v -0.5 4.7 -0.7
v -0.4 4.7 -0.7
v 0.4 4.7 -0.7
v 0.5 4.7 -0.7
v -0.4 4.7 -0.8
v 0.4 4.7 -0.8
v -0.5 4.8 0.6
v 0.5 4.8 0.6
v -0.6 4.8 0.5
v -0.5 4.8 0.5
v 0.5 4.8 0.5
v 0.6 4.8 0.5
v -0.6 4.8 0.4
v 0.6 4.8 0.4
v -0.4 4.8 0.3
v 0.4 4.8 0.3
v 0.5 4.8 0.3
v -0.6 4.8 0.2
v -0.4 4.8 0.2
v 0.4 4.8 0.2
v 0.5 4.8 0.2
v 0.6 4.8 0.2
v -0.6 4.8 0.1
v -0.4 4.8 0.1
v 0.4 4.8 0.1
v 0.5 4.8 0.1
v 0.6 4.8 0.1
v -0.6 4.8 -0.1
v -0.4 4.8 -0.1
v 0.4 4.8 -0.1
v 0.5 4.8 -0.1
v 0.6 4.8 -0.1
v -0.6 4.8 -0.2
v -0.4 4.8 -0.2
v 0.4 4.8 -0.2
v 0.5 4.8 -0.2
v 0.6 4.8 -0.2
v -0.4 4.8 -0.3
v 0.4 4.8 -0.3
v 0.5 4.8 -0.3
v -0.6 4.8 -0.4
v 0.6 4.8 -0.4
v -0.6 4.8 -0.5
v -0.5 4.8 -0.5
v 0.5 4.8 -0.5
v 0.6 4.8 -0.5
v -0.5 4.8 -0.6
v 0.5 4.8 -0.6
v -0.4 4.9 0.3
v 0.4 4.9 0.3
v -0.4 4.9 0.2
v 0.4 4.9 0.2
v -0.4 4.9 0.1
v -0.3 4.9 0.1
v 0.3 4.9 0.1
v 0.4 4.9 0.1
v -0.4 4.9 -0.1
v -0.3 4.9 -0.1
v 0.3 4.9 -0.1
v 0.4 4.9 -0.1
v -0.4 4.9 -0.2
v 0.4 4.9 -0.2
v -0.4 4.9 -0.3
v 0.4 4.9 -0.3
v -0.3 5 0.1
v 0.3 5 0.1
v -0.3 5 -0.1
v 0.3 5 -0.1

# faces
f 7/7/1 3/7/1 2/7/1
f 7/4/1 4/4/1 3/4/1
f 8/7/1 5/7/1 4/7/1
f 8/4/1 4/4/1 7/4/1
f 9/6/1 2/6/1 1/6/1
f 9/7/1 7/7/1 2/7/1
f 10/7/1 7/7/1 9/7/1
f 11/6/1 8/6/1 7/6/1
f 11/7/1 7/7/1 10/7/1
f 12/7/1 5/7/1 8/7/1
f 12/6/1 8/6/1 11/6/1
f 13/7/1 5/7/1 12/7/1
f 14/6/1 6/6/1 5/6/1
f 14/7/1 5/7/1 13/7/1
f 15/7/1 11/7/1 10/7/1
f 15/7/1 13/7/1 12/7/1
f 15/6/1 10/6/1 9/6/1
f 15/7/1 12/7/1 11/7/1
f 16/7/1 13/7/1 15/7/1
f 17/6/1 9/6/1 1/6/1
f 17/6/1 15/6/1 9/6/1
f 17/6/1 16/6/1 15/6/1
f 18/7/1 13/7/1 16/7/1
f 18/6/1 16/6/1 17/6/1
f 19/6/1 14/6/1 13/6/1
f 19/7/1 13/7/1 18/7/1
f 20/6/1 6/6/1 14/6/1
f 20/6/1 14/6/1 19/6/1
f 21/2/1 19/2/1 18/2/1
f 21/2/1 18/2/1 17/2/1
f 21/2/1 20/2/1 19/2/1
f 22/2/1 20/2/1 21/2/1
f 23/2/1 20/2/1 22/2/1
f 24/2/1 20/2/1 23/2/1
f 25/6/1 22/6/1 21/6/1
f 26/7/1 23/7/1 22/7/1
f 26/6/1 22/6/1 25/6/1
f 27/6/1 25/6/1 21/6/1
f 28/7/1 26/7/1 25/7/1
f 28/6/1 25/6/1 27/6/1
f 29/6/1 27/6/1 21/6/1
f 30/6/1 27/6/1 29/6/1
f 31/6/1 27/6/1 30/6/1
f 32/7/1 28/7/1 27/7/1
f 32/6/1 27/6/1 31/6/1
f 33/7/1 23/7/1 26/7/1
f 33/7/1 28/7/1 32/7/1
f 33/7/1 26/7/1 28/7/1
f 34/6/1 24/6/1 23/6/1
f 34/7/1 23/7/1 33/7/1
f 35/6/1 24/6/1 34/6/1
f 36/6/1 24/6/1 35/6/1
f 37/6/1 31/6/1 30/6/1
f 38/7/1 32/7/1 31/7/1
f 38/6/1 31/6/1 37/6/1
f 38/7/1 33/7/1 32/7/1
f 39/6/1 34/6/1 33/6/1
f 39/7/1 33/7/1 38/7/1
f 39/6/1 35/6/1 34/6/1
f 40/6/1 35/6/1 39/6/1
f 41/6/1 37/6/1 30/6/1
f 42/6/1 37/6/1 41/6/1
f 43/7/1 38/7/1 37/7/1
f 43/6/1 37/6/1 42/6/1
f 43/7/1 39/7/1 38/7/1
f 43/7/1 40/7/1 39/7/1
f 44/7/1 40/7/1 43/7/1
f 45/7/1 40/7/1 44/7/1
f 46/7/1 40/7/1 45/7/1
f 47/7/1 40/7/1 46/7/1
f 48/6/1 35/6/1 40/6/1
f 48/7/1 40/7/1 47/7/1
f 49/6/1 35/6/1 48/6/1
f 50/6/1 35/6/1 49/6/1
f 51/8/1 43/8/1 42/8/1
f 52/10/1 44/10/1 43/10/1
f 52/8/1 43/8/1 51/8/1
f 53/8/1 45/8/1 44/8/1
f 53/10/1 44/10/1 52/10/1
f 54/9/1 46/9/1 45/9/1
f 54/8/1 45/8/1 53/8/1
f 55/8/1 47/8/1 46/8/1
f 55/9/1 46/9/1 54/9/1
f 56/10/1 48/10/1 47/10/1
f 56/8/1 47/8/1 55/8/1
f 57/8/1 49/8/1 48/8/1
f 57/10/1 48/10/1 56/10/1
f 58/8/1 49/8/1 57/8/1
f 63/6/1 60/6/1 59/6/1
f 64/6/1 60/6/1 63/6/1
f 65/6/1 62/6/1 61/6/1
f 66/6/1 62/6/1 65/6/1
f 71/6/1 68/6/1 67/6/1
f 72/6/1 68/6/1 71/6/1
f 75/6/1 70/6/1 69/6/1
f 76/6/1 70/6/1 75/6/1
f 77/8/1 73/8/1 72/8/1
f 78/8/1 73/8/1 77/8/1
f 79/8/1 75/8/1 74/8/1
f 80/8/1 75/8/1 79/8/1
f 85/6/1 82/6/1 81/6/1
f 86/6/1 82/6/1 85/6/1
f 87/6/1 84/6/1 83/6/1
f 88/6/1 84/6/1 87/6/1
f 95/10/1 90/10/1 89/10/1
f 96/8/1 91/8/1 90/8/1
f 96/10/1 90/10/1 95/10/1
f 97/9/1 92/9/1 91/9/1
f 97/8/1 91/8/1 96/8/1
f 98/8/1 93/8/1 92/8/1
f 98/9/1 92/9/1 97/9/1
f 99/10/1 94/10/1 93/10/1
f 99/8/1 93/8/1 98/8/1
f 100/10/1 94/10/1 99/10/1
f 105/6/1 102/6/1 101/6/1
f 106/6/1 102/6/1 105/6/1
f 107/6/1 104/6/1 103/6/1
f 108/6/1 104/6/1 107/6/1
f 111/9/1 110/9/1 109/9/1
f 112/9/1 110/9/1 111/9/1
f 113/6/2 114/6/2 117/6/2
f 117/6/2 114/6/2 118/6/2
f 115/6/2 116/6/2 119/6/2
f 119/6/2 116/6/2 120/6/2
f 121/9/2 122/9/2 123/9/2
f 123/9/2 122/9/2 124/9/2
f 125/6/2 126/6/2 129/6/2
f 129/6/2 126/6/2 130/6/2
f 127/6/2 128/6/2 131/6/2
f 131/6/2 128/6/2 132/6/2
f 133/10/2 134/10/2 139/10/2
f 134/8/2 135/8/2 140/8/2
f 139/10/2 134/10/2 140/10/2
f 135/9/2 136/9/2 141/9/2
f 140/8/2 135/8/2 141/8/2
f 136/8/2 137/8/2 142/8/2
f 141/9/2 136/9/2 142/9/2
f 137/10/2 138/10/2 143/10/2
f 142/8/2 137/8/2 143/8/2
f 143/10/2 138/10/2 144/10/2
f 145/6/2 146/6/2 149/6/2
f 149/6/2 146/6/2 150/6/2
f 147/6/2 148/6/2 151/6/2
f 151/6/2 148/6/2 152/6/2
f 153/6/2 154/6/2 157/6/2
f 157/6/2 154/6/2 158/6/2
f 155/6/2 156/6/2 161/6/2
f 161/6/2 156/6/2 162/6/2
f 158/8/2 159/8/2 163/8/2
f 163/8/2 159/8/2 164/8/2
f 160/8/2 161/8/2 165/8/2
f 165/8/2 161/8/2 166/8/2
f 167/6/2 168/6/2 169/6/2
f 169/6/2 168/6/2 170/6/2
f 170/6/2 168/6/2 171/6/2
f 171/6/2 168/6/2 172/6/2
f 169/2/2 170/2/2 173/2/2
f 170/1/2 171/1/2 174/1/2
f 173/2/2 170/2/2 174/2/2
f 171/2/2 172/2/2 175/2/2
f 174/1/2 171/1/2 175/1/2
f 175/2/2 172/2/2 176/2/2
f 169/2/2 173/2/2 177/2/2
f 173/1/2 174/1/2 178/1/2
f 177/2/2 173/2/2 178/2/2
f 174/1/2 175/1/2 178/1/2
f 175/1/2 176/1/2 178/1/2
f 176/2/2 172/2/2 179/2/2
f 178/1/2 176/1/2 179/1/2
f 179/2/2 172/2/2 180/2/2
f 169/2/2 177/2/2 181/2/2
f 177/1/2 178/1/2 182/1/2
f 181/2/2 177/2/2 182/2/2
f 178/1/2 179/1/2 182/1/2
f 179/1/2 180/1/2 182/1/2
f 180/2/2 172/2/2 183/2/2
f 182/1/2 180/1/2 183/1/2
f 183/2/2 172/2/2 184/2/2
f 181/1/2 182/1/2 185/1/2
f 182/2/2 183/2/2 186/2/2
f 185/1/2 182/1/2 186/1/2
f 183/1/2 184/1/2 187/1/2
f 186/2/2 183/2/2 187/2/2
f 187/1/2 184/1/2 188/1/2
f 185/6/2 186/6/2 189/6/2
f 186/6/2 187/6/2 189/6/2
f 187/6/2 188/6/2 189/6/2
f 189/6/2 188/6/2 190/6/2
f 190/6/2 188/6/2 191/6/2
f 191/6/2 188/6/2 192/6/2
f 192/6/2 188/6/2 193/6/2
f 193/6/2 188/6/2 194/6/2
f 190/6/2 191/6/2 195/6/2
f 191/7/2 192/7/2 196/7/2
f 195/6/2 191/6/2 196/6/2
f 192/6/2 193/6/2 197/6/2
f 196/7/2 192/7/2 197/7/2
f 197/6/2 193/6/2 198/6/2
f 190/6/2 195/6/2 199/6/2
f 199/6/2 195/6/2 200/6/2
f 200/6/2 195/6/2 201/6/2
f 195/7/2 196/7/2 202/7/2
f 201/6/2 195/6/2 202/6/2
f 196/7/2 197/7/2 202/7/2
f 197/7/2 198/7/2 202/7/2
f 202/7/2 198/7/2 203/7/2
f 203/7/2 198/7/2 204/7/2
f 204/7/2 198/7/2 205/7/2
f 205/7/2 198/7/2 206/7/2
f 198/6/2 193/6/2 207/6/2
f 206/7/2 198/7/2 207/7/2
f 207/6/2 193/6/2 208/6/2
f 208/6/2 193/6/2 209/6/2
f 209/6/2 193/6/2 210/6/2
f 200/8/2 201/8/2 211/8/2
f 201/10/2 202/10/2 212/10/2
f 211/8/2 201/8/2 212/8/2
f 202/10/2 203/10/2 212/10/2
f 203/8/2 204/8/2 213/8/2
f 212/10/2 203/10/2 213/10/2
f 204/5/2 205/5/2 214/5/2
f 213/8/2 204/8/2 214/8/2
f 205/8/2 206/8/2 215/8/2
f 214/5/2 205/5/2 215/5/2
f 207/10/2 208/10/2 216/10/2
f 215/8/2 206/8/2 216/8/2
f 206/10/2 207/10/2 216/10/2
f 208/8/2 209/8/2 217/8/2
f 216/10/2 208/10/2 217/10/2
f 217/8/2 209/8/2 218/8/2
f 221/6/3 220/6/3 219/6/3
f 223/6/3 221/6/3 219/6/3
f 223/6/3 222/6/3 221/6/3
f 224/6/3 222/6/3 223/6/3
f 225/6/3 223/6/3 219/6/3
f 226/6/3 223/6/3 225/6/3
f 231/6/3 228/6/3 227/6/3
f 232/6/3 228/6/3 231/6/3
f 233/6/3 230/6/3 229/6/3
f 235/6/3 228/6/3 232/6/3
f 236/6/3 228/6/3 235/6/3
f 238/6/3 228/6/3 236/6/3
f 239/6/3 234/6/3 233/6/3
f 239/6/3 233/6/3 229/6/3
f 240/6/3 234/6/3 239/6/3
f 242/6/3 238/6/3 237/6/3
f 243/2/3 229/2/3 228/2/3
f 244/6/3 239/6/3 229/6/3
f 244/2/3 229/2/3 243/2/3
f 245/6/3 242/6/3 241/6/3
f 246/6/3 228/6/3 238/6/3
f 246/6/3 242/6/3 245/6/3
f 246/2/3 243/2/3 228/2/3
f 246/6/3 238/6/3 242/6/3
f 247/1/3 244/1/3 243/1/3
f 247/2/3 243/2/3 246/2/3
f 248/6/3 239/6/3 244/6/3
f 248/1/3 244/1/3 247/1/3
f 249/6/3 239/6/3 248/6/3
f 252/6/3 251/6/3 250/6/3
f 253/6/3 251/6/3 252/6/3
f 256/6/3 255/6/3 254/6/3
f 257/6/3 255/6/3 256/6/3
f 260/6/3 259/6/3 258/6/3
f 261/6/3 259/6/3 260/6/3
f 264/8/3 262/8/3 261/8/3
f 265/8/3 262/8/3 264/8/3
f 266/6/3 264/6/3 263/6/3
f 267/6/3 264/6/3 266/6/3
f 270/8/3 269/8/3 268/8/3
f 271/8/3 269/8/3 270/8/3
f 274/8/3 273/8/3 272/8/3
f 275/8/3 273/8/3 274/8/3
f 278/10/3 277/10/3 276/10/3
f 279/10/3 277/10/3 278/10/3
f 282/9/3 281/9/3 280/9/3
f 283/9/3 281/9/3 282/9/3
f 284/9/4 285/9/4 286/9/4
f 286/9/4 285/9/4 287/9/4
f 288/10/4 289/10/4 290/10/4
f 290/10/4 289/10/4 291/10/4
f 292/8/4 293/8/4 294/8/4
f 294/8/4 293/8/4 295/8/4
f 296/8/4 297/8/4 298/8/4
f 298/8/4 297/8/4 299/8/4
f 300/6/4 301/6/4 302/6/4
f 302/6/4 301/6/4 303/6/4
f 303/8/4 304/8/4 306/8/4
f 306/8/4 304/8/4 307/8/4
f 305/6/4 306/6/4 308/6/4
f 308/6/4 306/6/4 309/6/4
f 310/6/4 311/6/4 312/6/4
f 312/6/4 311/6/4 313/6/4
f 314/6/4 315/6/4 316/6/4
f 316/6/4 315/6/4 317/6/4
f 318/6/4 319/6/4 322/6/4
f 322/6/4 319/6/4 323/6/4
f 320/6/4 321/6/4 324/6/4
f 323/6/4 319/6/4 326/6/4
f 326/6/4 319/6/4 327/6/4
f 327/6/4 319/6/4 329/6/4
f 324/6/4 325/6/4 330/6/4
f 320/6/4 324/6/4 330/6/4
f 330/6/4 325/6/4 331/6/4
f 328/6/4 329/6/4 333/6/4
f 319/2/4 320/2/4 334/2/4
f 320/6/4 330/6/4 335/6/4
f 334/2/4 320/2/4 335/2/4
f 332/6/4 333/6/4 336/6/4
f 329/6/4 319/6/4 337/6/4
f 336/6/4 333/6/4 337/6/4
f 319/2/4 334/2/4 337/2/4
f 333/6/4 329/6/4 337/6/4
f 334/1/4 335/1/4 338/1/4
f 337/2/4 334/2/4 338/2/4
f 335/6/4 330/6/4 339/6/4
f 338/1/4 335/1/4 339/1/4
f 339/6/4 330/6/4 340/6/4
f 341/6/4 342/6/4 343/6/4
f 341/6/4 343/6/4 345/6/4
f 343/6/4 344/6/4 345/6/4
f 345/6/4 344/6/4 346/6/4
f 341/6/4 345/6/4 347/6/4
f 347/6/4 345/6/4 348/6/4
f 352/6/5 350/6/5 349/6/5
f 353/6/5 350/6/5 352/6/5
f 355/6/5 352/6/5 351/6/5
f 355/6/5 354/6/5 353/6/5
f 355/6/5 353/6/5 352/6/5
f 356/6/5 354/6/5 355/6/5
f 357/7/5 356/7/5 355/7/5
f 358/6/5 354/6/5 356/6/5
f 358/7/5 356/7/5 357/7/5
f 359/4/5 358/4/5 357/4/5
f 360/6/5 354/6/5 358/6/5
f 360/4/5 358/4/5 359/4/5
f 361/7/5 360/7/5 359/7/5
f 362/6/5 354/6/5 360/6/5
f 362/7/5 360/7/5 361/7/5
f 363/6/5 362/6/5 361/6/5
f 364/6/5 354/6/5 362/6/5
f 364/6/5 362/6/5 363/6/5
f 365/6/5 354/6/5 364/6/5
f 366/6/5 354/6/5 365/6/5
f 367/6/5 365/6/5 364/6/5
f 368/6/5 365/6/5 367/6/5
f 369/6/6 370/6/6 373/6/6
f 373/6/6 370/6/6 374/6/6
f 371/6/6 372/6/6 375/6/6
f 375/6/6 372/6/6 376/6/6
f 377/6/6 378/6/6 381/6/6
f 381/6/6 378/6/6 382/6/6
f 379/6/6 380/6/6 383/6/6
f 383/6/6 380/6/6 384/6/6
f 385/6/6 386/6/6 387/6/6
f 387/6/6 386/6/6 388/6/6
f 389/6/6 390/6/6 391/6/6
f 391/6/6 390/6/6 392/6/6
f 393/6/6 394/6/6 397/6/6
f 397/6/6 394/6/6 398/6/6
f 395/6/6 396/6/6 399/6/6
f 399/6/6 396/6/6 400/6/6
f 393/6/6 397/6/6 401/6/6
f 401/6/6 397/6/6 402/6/6
f 400/6/6 396/6/6 403/6/6
f 403/6/6 396/6/6 404/6/6
f 405/6/6 406/6/6 409/6/6
f 407/6/6 408/6/6 412/6/6
f 409/6/6 410/6/6 413/6/6
f 405/6/6 409/6/6 413/6/6
f 413/6/6 410/6/6 414/6/6
f 411/6/6 412/6/6 415/6/6
f 412/6/6 408/6/6 416/6/6
f 415/6/6 412/6/6 416/6/6
f 417/6/6 418/6/6 420/6/6
f 420/6/6 418/6/6 421/6/6
f 419/6/6 420/6/6 424/6/6
f 421/6/6 422/6/6 424/6/6
f 420/6/6 421/6/6 424/6/6
f 424/6/6 422/6/6 425/6/6
f 423/6/6 424/6/6 427/6/6
f 427/6/6 424/6/6 428/6/6
f 425/6/6 426/6/6 429/6/6
f 429/6/6 426/6/6 430/6/6
f 431/6/6 432/6/6 435/6/6
f 435/6/6 432/6/6 436/6/6
f 433/6/6 434/6/6 437/6/6
f 437/6/6 434/6/6 438/6/6
f 436/6/6 437/6/6 439/6/6
f 439/6/6 437/6/6 440/6/6
f 440/6/6 437/6/6 441/6/6
f 441/6/6 437/6/6 442/6/6
f 440/6/6 441/6/6 443/6/6
f 443/6/6 441/6/6 444/6/6
f 445/8/6 446/8/6 448/8/6
f 448/8/6 446/8/6 449/8/6
f 447/8/6 448/8/6 451/8/6
f 449/8/6 450/8/6 451/8/6
f 448/8/6 449/8/6 451/8/6
f 451/8/6 450/8/6 452/8/6
f 451/10/6 452/10/6 453/10/6
f 453/10/6 452/10/6 454/10/6
f 454/10/6 452/10/6 455/10/6
f 451/10/6 453/10/6 456/10/6
f 456/10/6 453/10/6 457/10/6
f 454/7/6 455/7/6 458/7/6
f 455/10/6 452/10/6 459/10/6
f 458/7/6 455/7/6 459/7/6
f 459/10/6 452/10/6 460/10/6
f 456/8/6 457/8/6 461/8/6
f 461/8/6 457/8/6 462/8/6
f 458/6/6 459/6/6 463/6/6
f 459/8/6 460/8/6 464/8/6
f 463/6/6 459/6/6 464/6/6
f 464/8/6 460/8/6 465/8/6
f 461/9/6 462/9/6 466/9/6
f 466/9/6 462/9/6 467/9/6
f 463/5/6 464/5/6 468/5/6
f 464/5/6 465/5/6 468/5/6
f 468/5/6 465/5/6 469/5/6
f 469/5/6 465/5/6 470/5/6
f 466/8/6 467/8/6 471/8/6
f 471/8/6 467/8/6 472/8/6
f 468/6/6 469/6/6 473/6/6
f 469/8/6 470/8/6 474/8/6
f 473/6/6 469/6/6 474/6/6
f 474/8/6 470/8/6 475/8/6
f 471/10/6 472/10/6 476/10/6
f 473/7/6 474/7/6 477/7/6
f 474/10/6 475/10/6 478/10/6
f 477/7/6 474/7/6 478/7/6
f 471/10/6 476/10/6 479/10/6
f 476/10/6 477/10/6 479/10/6
f 477/10/6 478/10/6 479/10/6
f 478/10/6 475/10/6 480/10/6
f 479/10/6 478/10/6 480/10/6
f 479/8/6 480/8/6 481/8/6
f 481/8/6 480/8/6 482/8/6
f 482/8/6 480/8/6 483/8/6
f 483/8/6 480/8/6 484/8/6
f 482/8/6 483/8/6 485/8/6
f 485/8/6 483/8/6 486/8/6
f 487/10/6 488/10/6 489/10/6
f 489/10/6 488/10/6 490/10/6
f 489/8/6 490/8/6 491/8/6
f 491/8/6 490/8/6 492/8/6
f 492/8/6 490/8/6 493/8/6
f 493/8/6 490/8/6 494/8/6
f 491/9/6 492/9/6 495/9/6
f 495/9/6 492/9/6 496/9/6
f 493/9/6 494/9/6 497/9/6
f 497/9/6 494/9/6 498/9/6
f 495/8/6 496/8/6 499/8/6
f 496/8/6 497/8/6 499/8/6
f 497/8/6 498/8/6 499/8/6
f 499/8/6 498/8/6 500/8/6
f 499/10/6 500/10/6 501/10/6
f 501/10/6 500/10/6 502/10/6
f 503/9/6 504/9/6 505/9/6
f 505/9/6 504/9/6 506/9/6
