# MagicaVoxel @ Ephtracy

# group
o LeftArm_1

# material
mtllib kiritan-1-LeftArm_1.mtl
usemtl palette

# normals
vn -1 0 0
vn 1 0 0
vn 0 0 1
vn 0 0 -1
vn 0 -1 0
vn 0 1 0

# texcoords
vt 0.939453 0.5
vt 0.951172 0.5

# verts
v -0.3 4 -1.6
v -0.3 4 -2.2
v -0.3 4.3 -1.5
v -0.3 4.3 -1.6
v -0.3 4.3 -2.2
v -0.3 4.3 -2.3
v -0.3 4.7 -1.5
v -0.3 4.7 -2.2
v -0.3 4.7 -2.3
v 0.1 4 -1.6
v 0.1 4 -2.2
v 0.1 4.3 -1.5
v 0.1 4.3 -1.6
v 0.1 4.3 -2.2
v 0.1 4.3 -2.3
v 0.1 4.7 -1.5
v 0.1 4.7 -2.2
v 0.1 4.7 -2.3
v -0.3 4.3 -1.5
v -0.3 4.7 -1.5
v 0.1 4.3 -1.5
v 0.1 4.7 -1.5
v -0.3 4 -1.6
v -0.3 4.3 -1.6
v 0.1 4 -1.6
v 0.1 4.3 -1.6
v -0.3 4 -2.2
v -0.3 4.3 -2.2
v 0.1 4 -2.2
v 0.1 4.3 -2.2
v -0.3 4.3 -2.3
v -0.3 4.7 -2.3
v 0.1 4.3 -2.3
v 0.1 4.7 -2.3
v -0.3 4 -1.6
v 0.1 4 -1.6
v -0.3 4 -2.2
v 0.1 4 -2.2
v -0.3 4.3 -1.5
v 0.1 4.3 -1.5
v -0.3 4.3 -1.6
v 0.1 4.3 -1.6
v -0.3 4.3 -2.2
v 0.1 4.3 -2.2
v -0.3 4.3 -2.3
v 0.1 4.3 -2.3
v -0.3 4.7 -1.5
v 0.1 4.7 -1.5
v -0.3 4.7 -2.2
v 0.1 4.7 -2.2
v -0.3 4.7 -2.3
v 0.1 4.7 -2.3

# faces
f 4/2/1 2/2/1 1/2/1
f 5/2/1 2/2/1 4/2/1
f 7/2/1 4/2/1 3/2/1
f 7/2/1 5/2/1 4/2/1
f 8/1/1 6/1/1 5/1/1
f 8/2/1 5/2/1 7/2/1
f 9/1/1 6/1/1 8/1/1
f 10/2/2 11/2/2 13/2/2
f 13/2/2 11/2/2 14/2/2
f 12/2/2 13/2/2 16/2/2
f 13/2/2 14/2/2 16/2/2
f 14/1/2 15/1/2 17/1/2
f 16/2/2 14/2/2 17/2/2
f 17/1/2 15/1/2 18/1/2
f 21/2/3 20/2/3 19/2/3
f 22/2/3 20/2/3 21/2/3
f 25/2/3 24/2/3 23/2/3
f 26/2/3 24/2/3 25/2/3
f 27/2/4 28/2/4 29/2/4
f 29/2/4 28/2/4 30/2/4
f 31/1/4 32/1/4 33/1/4
f 33/1/4 32/1/4 34/1/4
f 37/2/5 36/2/5 35/2/5
f 38/2/5 36/2/5 37/2/5
f 41/2/5 40/2/5 39/2/5
f 42/2/5 40/2/5 41/2/5
f 45/1/5 44/1/5 43/1/5
f 46/1/5 44/1/5 45/1/5
f 47/2/6 48/2/6 49/2/6
f 49/2/6 48/2/6 50/2/6
f 49/1/6 50/1/6 51/1/6
f 51/1/6 50/1/6 52/1/6
